<svg xmlns="http://www.w3.org/2000/svg" width="17" height="11" viewBox="0 0 17 11">
  <path id="Shape" d="M5.488,0a.6.6,0,0,0-.6.585V15L1.043,11.324a.622.622,0,0,0-.432-.171A.6.6,0,0,0,0,11.738a.57.57,0,0,0,.179.414l4.886,4.677.007.006h0l.019.017.026.022h0l.016.011h0l.029.019,0,0,.022.013,0,0,.025.013,0,0,.022.01,0,0,.025.011,0,0,.027.009h0l.021.007h0l.027.007h0l.025.005h0l.026,0h0l.029,0h.063l.055,0h0l.042-.007h0l.033-.007h0l.027-.007h0l.041-.012h0l.026-.009,0,0,.036-.015,0,0,.05-.024,0,0,0,0,0,0,.037-.022,0,0,.026-.017h0l.04-.031,0,0,.028-.024,4.886-4.676A.571.571,0,0,0,11,11.734a.6.6,0,0,0-.611-.585h-.018a.623.623,0,0,0-.42.176L6.108,15V.587A.6.6,0,0,0,5.5,0h-.01Z" transform="translate(0 11) rotate(-90)" fill="" opacity="0.5"/>
</svg>
