<svg xmlns="http://www.w3.org/2000/svg" width="48.364" height="59.191" viewBox="0 0 48.364 59.191">
  <g id="Group_6803" data-name="Group 6803" transform="translate(6707.704 2120.452)">
    <g id="Group_6799" data-name="Group 6799" transform="translate(-6698.168 -2120.452)">
      <path id="Subtraction_5" data-name="Subtraction 5" d="M6.131,28.016h0a4.657,4.657,0,0,1-1.971-.428A2.4,2.4,0,0,1,3.1,26.751a.56.56,0,0,0-.486-.348.636.636,0,0,0-.524.348.484.484,0,0,1-.438.237.476.476,0,0,1-.445-.237,3.143,3.143,0,0,1,.052-1.057v0a8.6,8.6,0,0,0,.106-1.3,18.36,18.36,0,0,0-.408-2.178,12.025,12.025,0,0,1-.318-1.7c.009-.123.047-.359.094-.657v0h0a11.785,11.785,0,0,0,.221-2.176c-.028-.325,0-.527.081-.617a.179.179,0,0,1,.139-.057.554.554,0,0,1,.19.044,1.244,1.244,0,0,1,.457.426,1.345,1.345,0,0,1,.268.71,2.019,2.019,0,0,1-.06.434h0c-.031.14-.055.25-.013.3a.112.112,0,0,0,.093.034.49.49,0,0,0,.107-.015c.063-.015.127-.026.193-.038l.008,0a2.06,2.06,0,0,0,1.312-.718c.641-.672.925-.693,1.317-.723l.039,0a3.791,3.791,0,0,0,1.243-.516h0l.271-.146a.677.677,0,0,1,.3-.1.262.262,0,0,1,.168.066.262.262,0,0,0,.167.066.452.452,0,0,0,.158-.035A.147.147,0,0,0,7.5,16.63a1.018,1.018,0,0,0-.356-.541,1.724,1.724,0,0,0-.539-.38.322.322,0,0,0-.092-.016c-.094,0-.122.07-.16.167h0a.709.709,0,0,1-.252.352.832.832,0,0,1-.53.178,4.161,4.161,0,0,1-.953-.178,5.153,5.153,0,0,0-1.281-.143,8.16,8.16,0,0,0-1.495.143,3.749,3.749,0,0,1-.7.078,1.7,1.7,0,0,1-.881-.236.542.542,0,0,1-.245-.41,1.465,1.465,0,0,1,.245-1.073c.257-.285.255-.647.253-1.439,0-.084,0-.172,0-.265A2.238,2.238,0,0,1,1.148,11.3c.026-.029.046-.051.061-.069a.986.986,0,0,0,.137-.33,4.287,4.287,0,0,1,.242-.648c.164-.348.494-.364.913-.384a3.488,3.488,0,0,0,.727-.089.633.633,0,0,0,.491-.368A1.511,1.511,0,0,0,3.75,8.8v0c-.008-.12-.017-.244-.017-.376,0-.615-.762-.877-1.374-1.087h0l-.04-.014-.1-.034A2.322,2.322,0,0,1,.957,6.309c-.242-.416.249-1.029.41-1.23A11.721,11.721,0,0,0,2,3.4,19.482,19.482,0,0,1,3.1.536.933.933,0,0,1,3.894,0a1.739,1.739,0,0,1,.415.067h0a1.818,1.818,0,0,0,.3.058c.121.009.244.012.362.016h.009a2.833,2.833,0,0,1,.859.11.929.929,0,0,0,.322.058A1.823,1.823,0,0,0,6.856.126a1.3,1.3,0,0,1,.463-.06,11.62,11.62,0,0,1,1.65.187c.084.014.16.025.234.035l.021,0a1.613,1.613,0,0,1,1.071.466,13.339,13.339,0,0,0,3.722,1.388c1.247.312,1.51.5,1.893,1.073.279.418.721.946,1.111,1.412h0c.141.168.266.318.371.448a2.5,2.5,0,0,1,.35,1.122,2.875,2.875,0,0,0,.313,1.086c.1.146.173.247.239.336l0,.006a3.559,3.559,0,0,1,.577,1.142,29.724,29.724,0,0,0,1.83,3.88,4.025,4.025,0,0,1,.544,1.865,6.983,6.983,0,0,1-.26,2.078,2.937,2.937,0,0,1-.782,1.424,1.335,1.335,0,0,1-.813.425.269.269,0,0,1-.108-.019c-.211-.094-.038-1.132.076-1.818v0h0c.039-.236.073-.439.081-.545.03-.391-.217-.59-.978-.789a.563.563,0,0,0-.142-.019c-.386,0-.635.435-.855.818a1.539,1.539,0,0,1-.391.526,1.972,1.972,0,0,1-.595.116c-.74.086-1.979.23-2.465,1.272-.513,1.1.481,1.76,1.139,2.2h0a2.751,2.751,0,0,1,.436.326,1.364,1.364,0,0,1,.216.8c.028.366.054.711.352.711a.344.344,0,0,0,.267-.117c.238-.266.2-.925.143-1.4-.006-.053-.012-.106-.018-.148-.057-.471-.091-.755.4-.956a1.5,1.5,0,0,1,.561-.12.722.722,0,0,1,.764.657,3.088,3.088,0,0,1-.666,1.7,11.5,11.5,0,0,1-1.447,1.838,1.969,1.969,0,0,1-1.407.637,1.328,1.328,0,0,1-.738-.2c-.124-.093-.065-.345,0-.612s.132-.568,0-.713a.189.189,0,0,0-.147-.048,3.333,3.333,0,0,0-1.243.5,7.226,7.226,0,0,0-1.26.875,2.023,2.023,0,0,0-.53,1.217h0a5.8,5.8,0,0,1-.321,1.148,2.806,2.806,0,0,1-1.66,1.246,8.627,8.627,0,0,1-2.535.489C6.257,28.015,6.194,28.016,6.131,28.016Zm-3.01-4.609a5.6,5.6,0,0,1,2.108.564,3.3,3.3,0,0,0,1.481.314,1.6,1.6,0,0,0,.573-.071c.049-.027.072-.055.071-.087,0-.1-.264-.247-.743-.473-.112-.053-.257-.124-.425-.206a18.942,18.942,0,0,0-3.14-1.306,2.452,2.452,0,0,0-.593-.093.527.527,0,0,0-.407.136c-.159.172-.134.494-.106.867l0,.06c.041.549.228.609.306.609a.135.135,0,0,0,.123-.067c.037-.092.385-.2.672-.243A.593.593,0,0,1,3.121,23.408Zm5.238-1.7H8.4a.956.956,0,0,1,.712.372,1.172,1.172,0,0,0,.389.3.584.584,0,0,0,.18.053c.018,0,.029,0,.034-.015.02-.039-.057-.151-.173-.321-.052-.076-.111-.162-.173-.259a1.823,1.823,0,0,0-1.467-.7,1.615,1.615,0,0,0-.194.011,2.172,2.172,0,0,1-.258.017,1.394,1.394,0,0,1-.77-.235c-.047-.026-.1-.054-.147-.081a7.822,7.822,0,0,0-2.6-.693l-.086,0c-.066,0-.132,0-.2,0a2.132,2.132,0,0,1-1.279-.322.286.286,0,0,0-.17-.052.523.523,0,0,0-.483.444c-.017.11-.024.181-.029.237a1.345,1.345,0,0,1-.12.453c-.139.364,0,.44.121.507l.028.016a.048.048,0,0,0,.024.007c.084,0,.161-.248.228-.467.03-.1.057-.186.084-.25.041-.1.232-.148.569-.148A8.612,8.612,0,0,1,4,20.742a6.542,6.542,0,0,1,2.277.784A.264.264,0,0,1,6.3,21.8c-.026.091-.049.169.066.207a.265.265,0,0,0,.08.009,4.752,4.752,0,0,0,.741-.126l.135-.029A5.782,5.782,0,0,1,8.359,21.712ZM9.784,7.3a25.7,25.7,0,0,0-2.82.155,4.3,4.3,0,0,0-1.755.615c-.115.192-.066.324.187.5.055.039.11.072.158.1h0c.18.107.289.172.157.421a1.176,1.176,0,0,0,0,1.213,3.055,3.055,0,0,0,1.633,1.049.451.451,0,0,0,.2-.041,2.938,2.938,0,0,0,.509-.337,1.39,1.39,0,0,1,.835-.391c.129,0,.254.008.375.016h0c.111.007.226.015.337.015a1.07,1.07,0,0,0,.666-.18,1.225,1.225,0,0,1,.637-.294.311.311,0,0,1,.278.164c.193.308.326.43.971.485s.983.111,1.436.186h0a5.587,5.587,0,0,0,.811.089c.212,0,.338-.035.376-.1a.17.17,0,0,0-.031-.171,2.726,2.726,0,0,1-.226-.46v0c-.06-.147-.1-.243-.159-.243a.081.081,0,0,0-.043.015c-.031.019-.087.061-.151.109l0,0a1.86,1.86,0,0,1-.549.335.037.037,0,0,1-.032-.014c-.012-.017-.009-.05.009-.1a1.29,1.29,0,0,1,.168-.3v0c.07-.1.125-.178.1-.247-.015-.049-.066-.089-.162-.127a3.861,3.861,0,0,0-1.02-.092h0a3.483,3.483,0,0,1-.9-.076c-.348-.143-1.446-.581-1.9-.709a2.642,2.642,0,0,0-.434-.074c-.165-.018-.285-.031-.311-.091-.015-.035,0-.084.054-.153a3.389,3.389,0,0,1,1.789-.318,4.359,4.359,0,0,1,.638.038,2.807,2.807,0,0,0,.441.039c.253,0,.424-.047.483-.132a.135.135,0,0,0,.01-.131A2.43,2.43,0,0,0,10.81,7.34,9.466,9.466,0,0,0,9.784,7.3Z" transform="translate(0 8.698)" fill="#d9b384"/>
      <path id="Path_43941" data-name="Path 43941" d="M-6608.472-2104.574s-.283-.347.158-.284,1.167.252.978.5-.82.441-.978.284A.85.85,0,0,1-6608.472-2104.574Z" transform="translate(6609.333 2120.97)" fill="#d9b384"/>
      <path id="Path_43942" data-name="Path 43942" d="M-6608.977-2175.547c.345,0,.881-.284.724-1.293s-.6-1.2-.189-1.483,1.514-.568,2.05-1.356a5.136,5.136,0,0,1,1.609-1.672c.6-.347.789-1.483.568-1.514a3.533,3.533,0,0,0-1.073.41c-.284.126-.852.315-.694,0s.568-1.167.221-1.293-.694.757-1.168,1.135-1.482,1.924-1.766,1.924-.915.032-.915.442-.126,2.334-.189,2.618-.126,1.325.189,1.641S-6609.321-2175.547-6608.977-2175.547Z" transform="translate(6610.377 2184.844)" fill="#d9b384"/>
      <path id="Path_43943" data-name="Path 43943" d="M-6590.949-2155.938s-1.041-.031-1.072-.978.536-1.419.631-.978a3.815,3.815,0,0,0,.441,1.356c.221.252.41.536.221.6S-6590.949-2155.938-6590.949-2155.938Z" transform="translate(6595.944 2164.038)" fill="#d9b384"/>
      <path id="Path_43944" data-name="Path 43944" d="M-6584.108-2162.211c-.188-.057-.819.353-.788.763s.378,1.483.788,1.64,1.326.315,1.294,0a7.292,7.292,0,0,0-.852-1.988C-6583.919-2162.079-6583.919-2162.154-6584.108-2162.211Z" transform="translate(6590.175 2167.402)" fill="#d9b384"/>
      <path id="Path_43945" data-name="Path 43945" d="M-6576.3-2183.686a2.126,2.126,0,0,0,.252,1.924,11.844,11.844,0,0,0,3.5,2.177c1.073.378,3.218.662,3.123.378a28.486,28.486,0,0,0-3.628-3.091,11.466,11.466,0,0,0-3-1.577C-6576.268-2183.812-6576.2-2183.907-6576.3-2183.686Z" transform="translate(6583.313 2184.939)" fill="#d9b384"/>
      <path id="Path_43946" data-name="Path 43946" d="M-6567.148-2160.3a6.534,6.534,0,0,0,2.149.922,11.031,11.031,0,0,1,2.524.146c.728.194,2.6.534,2.572.874s-.437.34-.413.728.413.922-.243,1.262a8.381,8.381,0,0,1-5.339-.146,6.634,6.634,0,0,1-3.349-2.96c-.17-.679.146-.995.606-.825s.364.412.753.169S-6567.453-2160.42-6567.148-2160.3Z" transform="translate(6577.541 2165.901)" fill="#d9b384"/>
      <path id="Path_43947" data-name="Path 43947" d="M-6556.61-2183.9c-.242.1-.631.466,0,1.243a29.612,29.612,0,0,0,4.757,3.688c.921.485,1.5.655,1.893.364a1.74,1.74,0,0,1,1.358-.146c.485.073.8-.825.461-1.529s-2.014-1.577-3.3-1.99-3.834-.922-4.393-1.262S-6556.367-2184.006-6556.61-2183.9Z" transform="translate(6567.55 2184.988)" fill="#d9b384"/>
      <path id="Path_43948" data-name="Path 43948" d="M-6533.391-2187.208a5.4,5.4,0,0,0,1.771,0c.122-.121.389-.582,0-.728s-.558.049-.752-.218-.461-.267-.8,0S-6533.633-2187.281-6533.391-2187.208Z" transform="translate(6548.577 2188.563)" fill="#d9b384"/>
      <path id="Path_43949" data-name="Path 43949" d="M-6516.094-2149.062c.267.2.874,1.49,1.747,2.388a10.537,10.537,0,0,0,3.179,1.99c.7.267.922.34.776.534s-.024.679-.339.728-4.368.218-5.824-1.262-1.893-3.494-1.65-4S-6516.361-2149.266-6516.094-2149.062Z" transform="translate(6536.23 2156.838)" fill="#d9b384"/>
      <path id="Path_43950" data-name="Path 43950" d="M-6506.033-2166.054a16.494,16.494,0,0,0,1.553,2.257,12.66,12.66,0,0,0,3.057,2.135c.923.34,1.408.461,1.48.194s-.413-.922,0-1.092,1.917-.049,1.65-.461-2.524-1.771-4.2-3.81-3.4-2.912-3.543-2.669A9.136,9.136,0,0,0-6506.033-2166.054Z" transform="translate(6526.461 2173.33)" fill="#d9b384"/>
      <path id="Path_43951" data-name="Path 43951" d="M-6517.864-2188.369s-1.02-.092-.971.587a2.156,2.156,0,0,0,1.868,1.553,5.211,5.211,0,0,1,2.281.316,8.587,8.587,0,0,1,2.135,1.65c.194.388.679.51.631,0s-.583-.679-.631-1.213.291-.267,0-.752-2.257-1-3.907-2.14-2.184-1.257-2.087-.917A3.348,3.348,0,0,0-6517.864-2188.369Z" transform="translate(6536.69 2189.452)" fill="#d9b384"/>
      <path id="Path_43952" data-name="Path 43952" d="M-6476.8-2164.116a12.519,12.519,0,0,1,2.135,2.354c.364.606.121,1.165-.218,1.262a.857.857,0,0,1-1.189-.485c-.218-.679.073-.485-.728-1.116s-1-.971-.874-1.432A.9.9,0,0,1-6476.8-2164.116Z" transform="translate(6503.392 2168.942)" fill="#d9b384"/>
      <path id="Path_43953" data-name="Path 43953" d="M-6463.224-2124.585a8.332,8.332,0,0,1-1.722-2.863c-.559-1.553-1.214-3.228-.874-3.907s1.237-.049,1.407-.364,0-.8.413-.437a9.8,9.8,0,0,1,1.844,3.155,26.332,26.332,0,0,1-.728,2.766c-.146.849.194,1.456,0,1.529S-6463.054-2124.463-6463.224-2124.585Z" transform="translate(6493.843 2143.169)" fill="#d9b384"/>
      <path id="Path_43954" data-name="Path 43954" d="M-6484.494-2114.421c.19.34.652,1.7,1.161,2.572s1.165,1.553,1.043,1.771-2.354.291-4.028-.8-2.791-3.082-2.5-3.81,1.7-.534,2.742-.34S-6484.685-2114.76-6484.494-2114.421Z" transform="translate(6512.424 2129.341)" fill="#d9b384"/>
      <path id="Path_43955" data-name="Path 43955" d="M-6454.387-2097.766c.058-.243-.088-.049.422-1.043a7.694,7.694,0,0,0,.946-3.737,9.651,9.651,0,0,1,0-2.062c.121-.486,1.65-1.5,1.65-.9s-.146,1.917-.146,3.13.316,1.917-.267,2.621-1.553,1.553-1.819,1.99-.534.534-.68.437S-6454.445-2097.523-6454.387-2097.766Z" transform="translate(6484.536 2121.641)" fill="#d9b384"/>
      <path id="Path_43956" data-name="Path 43956" d="M-6495.993-2082.256c-.243-.122-.267-.874.146-1.8a19.688,19.688,0,0,0,1.092-2.427c.194-.728.364-1.529.8-1.82a1.213,1.213,0,0,1,1.262-.121c.34.194,1.383.048,1.966.388a1.858,1.858,0,0,1,.849,1.965c-.121.971-.437,2.427-.655,2.208s-.1-1.31-.194-1.5-.292.1-.389.8-1.432,1.626-1.286,1.868.437.121.655,0,.558.194.121.631-2.111,2.232-2.5,2.232-2.087.461-1.869-.849,2.184-1.771,2.5-2.451-.024-2.475.121-3.058,1.237-1.238,1.747-.922.583,1.432.7,1.408.072-.388.194-.777.461-.291.194-.752a1.434,1.434,0,0,0-1.334-.8,3.345,3.345,0,0,0-2.087,1.334c-.582.777-.9,1.043-.679,1.48s.85,1.48.51,1.844-.85.51-1.092.8S-6495.75-2082.135-6495.993-2082.256Z" transform="translate(6518.338 2107.756)" fill="#d9b384"/>
    </g>
    <path id="Subtraction_6" data-name="Subtraction 6" d="M37.573,29.193h0c-1.837,0-4.083-.121-6.675-.36-2.989-.275-6.432-.707-10.231-1.283-6.381-.968-11.445-1.93-15.051-2.859A23.739,23.739,0,0,1,.762,23.04c-.541-.292-.74-.5-.76-.789a3.731,3.731,0,0,1,.471-1.421c.086-.195.184-.415.289-.661.469-1.095,1.2-2.406,1.795-3.459a13.127,13.127,0,0,0,.918-1.777c.029-.125.027-.206-.006-.249a.12.12,0,0,0-.1-.039,1.094,1.094,0,0,0-.256.052,1.633,1.633,0,0,1-.426.077c-.2,0-.351-.27-.477-.824a13.932,13.932,0,0,1-.217-1.51,2.767,2.767,0,0,1,.576-1.64,5.428,5.428,0,0,1,1.38-1.451,5.659,5.659,0,0,1,3.024-.622c.135,0,.262-.005.383-.009.654-.021.731-.329.812-.655a1.206,1.206,0,0,1,.2-.48c.049-.063.094-.125.138-.185a1.152,1.152,0,0,1,1.123-.61c.06,0,.124,0,.19.006a4.013,4.013,0,0,1,2.334.789.237.237,0,0,1,.039.184c-.043.267-.428.661-1.143,1.172a2.093,2.093,0,0,0-.663,1.577,5.664,5.664,0,0,1-.694,1.7,8.945,8.945,0,0,0-.41.852,2.911,2.911,0,0,0-.01,1.2,3.7,3.7,0,0,1,.01,1.257c-.153.587-.827.658-1.188.7a1.427,1.427,0,0,0-.2.029c-.026.007-.04.018-.044.033-.009.037.052.1.137.176a1.02,1.02,0,0,1,.381.611c.026.394-1.463,1.207-2.1,1.554-.131.071-.225.123-.267.149a.148.148,0,0,1-.08.023c-.116,0-.27-.128-.434-.361a3.3,3.3,0,0,1-.369-.7c-.032-.085-.057-.126-.078-.126-.051,0-.067.249-.088.564A6.836,6.836,0,0,1,4.863,19c-.045.226-.238.345-.557.345A2.682,2.682,0,0,1,3.128,19a.4.4,0,0,0-.2-.069A.183.183,0,0,0,2.787,19a1.2,1.2,0,0,0-.1.826c.038.357.274.422.524.491a.83.83,0,0,1,.454.234l.068.082c.106.126.106.126.066.236a2.487,2.487,0,0,0-.134.534c-.126.791.474,1.893.946,1.987a.275.275,0,0,0,.054.006.158.158,0,0,0,.121-.05c.119-.125.1-.47.077-.87a5.325,5.325,0,0,1,0-.884,1.14,1.14,0,0,1,.461-.816A1.2,1.2,0,0,1,6,20.547a.338.338,0,0,1,.271.093c.124.136.144.442.076,1.168a.863.863,0,0,0,.137.667.4.4,0,0,0,.311.128.938.938,0,0,0,.562-.227c.317-.265.347-1.406.366-2.162,0-.145.007-.281.012-.394a.7.7,0,0,1,.375-.652A2.36,2.36,0,0,1,9.183,19c.079,0,.164,0,.254,0a1.537,1.537,0,0,1,1.295.594,11.773,11.773,0,0,0,1.419,1.172,10.5,10.5,0,0,0,2.956,1.361,9.546,9.546,0,0,0,2.4.454,1.249,1.249,0,0,0,.225-.016.66.66,0,0,0,.548-.516.642.642,0,0,0-.2-.652,3.438,3.438,0,0,0-.986-.27,18.776,18.776,0,0,1-3.4-.96,25.237,25.237,0,0,1-2.886-1.321A3.312,3.312,0,0,1,9.437,17.74a.4.4,0,0,1,.024-.4.8.8,0,0,1,.391-.286,1.632,1.632,0,0,1,.582-.105,1.377,1.377,0,0,1,.612.132,6.033,6.033,0,0,0,2.184.4,1.474,1.474,0,0,0,.276-.018c.31-.069.569-.178.6-.82a12.186,12.186,0,0,0-.6-2.388,8.264,8.264,0,0,1-.351-1.3c.017-.151.5-.543.915-.832a4.012,4.012,0,0,1,1.1-.619.117.117,0,0,1,.092.039c.113.125.066.549-.01,1.25-.025.233-.054.5-.082.793a1.589,1.589,0,0,0,.26,1.218.743.743,0,0,0,.566.238,1.238,1.238,0,0,0,.467-.1,1.744,1.744,0,0,0,.761-.954c.147-.309.286-.6.5-.686a.753.753,0,0,1,.281-.045,3.673,3.673,0,0,1,.69.1l.014,0a3.882,3.882,0,0,0,.73.1,1.014,1.014,0,0,0,.273-.033.6.6,0,0,0,.461-.373.66.66,0,0,0-.209-.6.442.442,0,0,1-.126-.379c.042-.271.333-.573.82-.851a3.851,3.851,0,0,0,.877-.967,6.449,6.449,0,0,1,1.962-1.935,5.724,5.724,0,0,1,1.33-.552,5.748,5.748,0,0,0,1.383-.584A9.778,9.778,0,0,0,28.7,4.853a11.6,11.6,0,0,0,1.814-2.886C31.043.515,31.295,0,31.648,0a.41.41,0,0,1,.092.011c.238.055.349.527.592,1.562.177.753.418,1.784.828,3.17A5.968,5.968,0,0,0,36.824,8.7a2.4,2.4,0,0,1,.468.24.359.359,0,0,1,.109.282,3.106,3.106,0,0,1-.692,1.526,16.41,16.41,0,0,1-2.351,2.546A21.58,21.58,0,0,1,28.9,16.569a9.332,9.332,0,0,0-1.891,1.013c-.191.176-.269.316-.23.414s.222.163.533.163a9.52,9.52,0,0,0,2.284-.419,17.174,17.174,0,0,0,7.95-4.448,16.051,16.051,0,0,0,2.369-3.062A10.515,10.515,0,0,1,41.55,8.087a11.649,11.649,0,0,1,2-1.723,1.781,1.781,0,0,1,1-.327.879.879,0,0,1,.7.241,2.011,2.011,0,0,1,.343,1.305A4.278,4.278,0,0,1,44.555,9.66c-.608.836-1.383,1.743-2.067,2.543a19.981,19.981,0,0,0-1.41,1.752c-.207.334-.277.582-.2.717a.256.256,0,0,0,.245.112,3.094,3.094,0,0,0,1.566-.829,15.782,15.782,0,0,0,2.256-2.784,11.747,11.747,0,0,0,1.4-2.453,4.079,4.079,0,0,0-.019-.953,1.774,1.774,0,0,1,.019-.814,1.53,1.53,0,0,1,1.072-.328.985.985,0,0,1,.852.328c.183.275.1,1.5-.252,3.734-.32,2.027-.867,4.912-1.672,8.821a37.078,37.078,0,0,1-1.1,4.231,15.542,15.542,0,0,1-1.1,2.584,6.2,6.2,0,0,1-1.839,2.149l-.155.121C41.667,28.974,40,29.193,37.573,29.193Zm2.06-4.918a.56.56,0,0,0-.364.221,1.911,1.911,0,0,0-.281.369c-.072.122-.1.172-.466.377-.234.132-.672.313-1.136.5a11.524,11.524,0,0,0-1.982.951c-.28.208-.408.4-.361.543s.308.24.741.24a5.076,5.076,0,0,0,.572-.037c1.43-.165,3.452-1.463,3.547-2.277a1.147,1.147,0,0,0-.114-.819A.2.2,0,0,0,39.633,24.275Zm3.78-5.642a6.5,6.5,0,0,0-1.789,1.281c-.843.7-1.892,1.561-3.139,2.453a9.072,9.072,0,0,1-4.518,1.995c-.131.019-.255.037-.373.058a10.764,10.764,0,0,1-1.856.118c-.254,0-.473,0-.645.013-.078.005-.2.008-.355.012h0a14.763,14.763,0,0,0-1.853.134,2.154,2.154,0,0,0-1.505.656.213.213,0,0,0-.017.228c.106.19.525.338,1.247.439a18.174,18.174,0,0,0,2.416.136,26.631,26.631,0,0,0,2.887-.15c2.631-.3,5.72-2.78,7.764-4.423h0a7.208,7.208,0,0,0,1.629-1.732,1.508,1.508,0,0,0,.305-1.037.222.222,0,0,0-.18-.18ZM20.587,22.255a.42.42,0,0,0-.319.1.256.256,0,0,0-.056.2c.029.347.687.633,1.234.812a10.912,10.912,0,0,0,1.192.308c.012,0,1.227.131,2.5.131a25.683,25.683,0,0,0,2.958-.243,9.275,9.275,0,0,0,2.623-.635.574.574,0,0,0,.342-.529c-.04-.406-.632-.8-1.2-1.02a2.949,2.949,0,0,0-1.077-.218,4.284,4.284,0,0,0-2.339.89,4.286,4.286,0,0,1-2.481.757,7.655,7.655,0,0,1-1.241-.121h0c-.09-.014-.175-.028-.252-.039a7.432,7.432,0,0,1-.791-.18A5.058,5.058,0,0,0,20.587,22.255ZM40.449,16.54a2.715,2.715,0,0,0-1.235.321,2.745,2.745,0,0,0-.646.8c-.333.517-.711,1.1-1.22,1.269l-.223.072a6.1,6.1,0,0,0-2.465,1.347c-.571.48-.831.87-.775,1.159.039.2.226.354.57.465a.762.762,0,0,0,.234.035A5.388,5.388,0,0,0,37,20.8l.237-.166a18.4,18.4,0,0,0,2.273-2.093,7.019,7.019,0,0,0,1.4-1.771.156.156,0,0,0-.044-.119A.6.6,0,0,0,40.449,16.54Zm5.575-4.986c-.219,0-.723.38-1.882,2.19a22.737,22.737,0,0,1-3.372,4.14l-.062.06a1.367,1.367,0,0,0-.448.877c.009.079.062.119.157.119a8.164,8.164,0,0,0,2.68-1.557,7.96,7.96,0,0,0,2.315-2.935,8.215,8.215,0,0,0,.8-2.4.627.627,0,0,0-.077-.443A.148.148,0,0,0,46.023,11.554ZM3.4,16.6c-.206,0-.7.682-.9.975-.345.5-.268.675-.235.75a.1.1,0,0,1,.011.034c0,.007.005.01.015.01a2.277,2.277,0,0,0,.526-.272,2.208,2.208,0,0,0,.672-1.344C3.483,16.648,3.452,16.6,3.4,16.6Zm.665-.916c-.158,0-.259.033-.307.1a.282.282,0,0,0-.006.259c.059.178.095.191.266.254.044.016.1.036.164.063a1.169,1.169,0,0,0,.428.071h0a1.907,1.907,0,0,0,1.138-.388,1.848,1.848,0,0,0,.588-.826.961.961,0,0,0,.028-.742c-.041-.069-.075-.1-.109-.1-.068,0-.135.129-.246.343a7.321,7.321,0,0,1-.373.654.827.827,0,0,1-.708.453,1.758,1.758,0,0,1-.43-.072,1.983,1.983,0,0,0-.318-.064C4.136,15.682,4.1,15.68,4.061,15.68ZM5.7,10.186c-.15,0-.512.623-.737,1.6-.23,1-.188,1.6.131,1.848a.266.266,0,0,0,.165.059c.206,0,.419-.245.507-.581a1.181,1.181,0,0,0-.223-.82,2.612,2.612,0,0,1-.225-.5,1.361,1.361,0,0,1,.237-.878,1.354,1.354,0,0,0,.211-.615C5.757,10.222,5.734,10.186,5.7,10.186Z" transform="translate(-6707.704 -2090.454)" fill="#d9b384"/>
  </g>
</svg>
