<svg id="XMLID_1095_" xmlns="http://www.w3.org/2000/svg" width="14.158" height="22.311" viewBox="0 0 14.158 22.311">
  <g id="XMLID_485_" transform="translate(0 0)">
    <path id="XMLID_1334_" d="M13.649,93.143A9.659,9.659,0,0,1,6.3,79.09a3.7,3.7,0,0,0-1.727-6.131.58.58,0,0,0-.561.15,3.7,3.7,0,0,0,1.009,5.955,10.768,10.768,0,0,0-.547,1.478,3.668,3.668,0,0,0-.354-.411,3.72,3.72,0,0,0-3.579-.959.58.58,0,0,0-.411.411A3.7,3.7,0,0,0,3.71,84.247q.175,0,.35-.017a10.777,10.777,0,0,0,.264,1.8,3.676,3.676,0,0,0-.512-.179,3.719,3.719,0,0,0-3.579.959.58.58,0,0,0-.15.561,3.719,3.719,0,0,0,2.62,2.62,3.679,3.679,0,0,0,.953.125,3.73,3.73,0,0,0,2.129-.67,10.89,10.89,0,0,0,1.193,1.521,3.721,3.721,0,0,0-3.011,1.847.58.58,0,0,0,0,.581,3.705,3.705,0,0,0,6.41.013,10.738,10.738,0,0,0,3.13.884.588.588,0,0,0,.072,0,.58.58,0,0,0,.071-1.156ZM3,88.871A2.556,2.556,0,0,1,1.317,87.4a2.544,2.544,0,0,1,3.88,1.04A2.556,2.556,0,0,1,3,88.871ZM4.169,76.388A2.556,2.556,0,0,1,4.6,74.194a2.543,2.543,0,0,1,1.04,3.88A2.556,2.556,0,0,1,4.169,76.388ZM1.9,82.342a2.556,2.556,0,0,1-.725-2.115,2.544,2.544,0,0,1,2.84,2.84A2.556,2.556,0,0,1,1.9,82.342ZM7.175,94.089a2.556,2.556,0,0,1-2.008-.983,2.543,2.543,0,0,1,4.017,0A2.555,2.555,0,0,1,7.175,94.089Z" transform="translate(0 -72.939)" fill="#e7ae6f"/>
  </g>
</svg>
