<svg id="XMLID_1095_" xmlns="http://www.w3.org/2000/svg" width="14.158" height="22.311" viewBox="0 0 14.158 22.311">
  <g id="XMLID_485_" transform="translate(0 0)">
    <path id="XMLID_1334_" d="M.509,93.143a9.663,9.663,0,0,0,8.45-9.581,9.675,9.675,0,0,0-1.1-4.472A3.7,3.7,0,0,1,9.59,72.959a.58.58,0,0,1,.561.15,3.7,3.7,0,0,1-1.009,5.955,10.768,10.768,0,0,1,.547,1.478,3.668,3.668,0,0,1,.354-.411,3.72,3.72,0,0,1,3.579-.959.58.58,0,0,1,.411.411,3.7,3.7,0,0,1-3.585,4.663q-.175,0-.35-.017a10.777,10.777,0,0,1-.264,1.8,3.676,3.676,0,0,1,.512-.179,3.719,3.719,0,0,1,3.579.959.58.58,0,0,1,.15.561,3.719,3.719,0,0,1-2.62,2.62,3.679,3.679,0,0,1-.953.125,3.73,3.73,0,0,1-2.129-.67,10.891,10.891,0,0,1-1.193,1.521,3.721,3.721,0,0,1,3.011,1.847.58.58,0,0,1,0,.581,3.705,3.705,0,0,1-6.41.013,10.738,10.738,0,0,1-3.13.884.588.588,0,0,1-.072,0,.58.58,0,0,1-.071-1.156Zm10.647-4.271A2.556,2.556,0,0,0,12.841,87.4a2.544,2.544,0,0,0-3.88,1.04,2.556,2.556,0,0,0,2.194.429ZM9.989,76.388a2.556,2.556,0,0,0-.429-2.194,2.543,2.543,0,0,0-1.04,3.88A2.556,2.556,0,0,0,9.989,76.388Zm2.264,5.954a2.556,2.556,0,0,0,.725-2.115,2.544,2.544,0,0,0-2.84,2.84,2.556,2.556,0,0,0,2.115-.725ZM6.983,94.089a2.556,2.556,0,0,0,2.008-.983,2.544,2.544,0,0,0-4.017,0A2.555,2.555,0,0,0,6.983,94.089Z" transform="translate(0 -72.939)" fill="#e7ae6f"/>
  </g>
</svg>
