<svg id="file-upload" xmlns="http://www.w3.org/2000/svg" width="23.57" height="21.912" viewBox="0 0 23.57 21.912">
  <path id="Path_2830" data-name="Path 2830" d="M19.887,0H3.683A3.687,3.687,0,0,0,0,3.682v12.89a3.687,3.687,0,0,0,3.683,3.683H16.25a.921.921,0,0,0,0-1.841H12.859l-2.117-2.746,6.708-8.532,4.516,4.991a.921.921,0,0,0,1.6-.618V3.682A3.687,3.687,0,0,0,19.887,0Zm1.841,9.119L18.084,5.09a.921.921,0,0,0-1.407.049L9.583,14.163,7.174,11.038a.921.921,0,0,0-.729-.359h0a.921.921,0,0,0-.729.359L3.689,13.673A.921.921,0,0,0,5.149,14.8l1.3-1.686,4.089,5.3H3.683a1.844,1.844,0,0,1-1.841-1.841V3.682A1.844,1.844,0,0,1,3.683,1.841h16.2a1.844,1.844,0,0,1,1.841,1.841Zm0,0" transform="translate(0 0)" fill="#d9b384"/>
  <path id="Path_2831" data-name="Path 2831" d="M82.762,72a2.762,2.762,0,1,0,2.762,2.762A2.765,2.765,0,0,0,82.762,72Zm0,3.683a.921.921,0,1,1,.921-.921A.922.922,0,0,1,82.762,75.683Zm0,0" transform="translate(-76.317 -68.686)" fill="#d9b384"/>
  <path id="Path_2832" data-name="Path 2832" d="M358.315,288.688l-.008-.008a2.295,2.295,0,0,0-3.256,0l-1.778,1.753a.921.921,0,0,0,1.293,1.311l1.19-1.173v5.168a.921.921,0,0,0,1.841,0v-5.14l1.139,1.176a.921.921,0,1,0,1.323-1.281Zm0,0" transform="translate(-336.749 -274.742)" fill="#d9b384"/>
</svg>
