<svg xmlns="http://www.w3.org/2000/svg" width="20.086" height="20.201" viewBox="0 0 20.086 20.201">
  <g id="menu-button-of-three-horizontal-lines" transform="translate(-2.031 -10.762)">
    <path id="Path_2912" data-name="Path 2912" d="M22.289,0H2.388A2.182,2.182,0,0,0,0,1.865,2.182,2.182,0,0,0,2.388,3.729h19.9a2.182,2.182,0,0,0,2.388-1.865A2.182,2.182,0,0,0,22.289,0Z" transform="translate(4.668 10.762) rotate(45)" fill="#e7ae6f"/>
    <path id="Path_2914" data-name="Path 2914" d="M22.289,0H2.388A2.182,2.182,0,0,0,0,1.865,2.182,2.182,0,0,0,2.388,3.729h19.9a2.182,2.182,0,0,0,2.388-1.865A2.182,2.182,0,0,0,22.289,0Z" transform="translate(2.031 28.326) rotate(-45)" fill="#e7ae6f"/>
  </g>
</svg>
