<svg xmlns="http://www.w3.org/2000/svg" width="9.778" height="9.833" viewBox="0 0 9.778 9.833">
  <g id="menu-button-of-three-horizontal-lines" transform="translate(-2.031 -10.762)">
    <path id="Path_2912" data-name="Path 2912" d="M10.85,0H1.162A1.062,1.062,0,0,0,0,.908a1.062,1.062,0,0,0,1.162.908H10.85A1.062,1.062,0,0,0,12.012.908,1.062,1.062,0,0,0,10.85,0Z" transform="translate(3.315 10.762) rotate(45)" fill="#f6f4f5"/>
    <path id="Path_2914" data-name="Path 2914" d="M10.85,0H1.162A1.062,1.062,0,0,0,0,.908a1.062,1.062,0,0,0,1.162.908H10.85A1.062,1.062,0,0,0,12.012.908,1.062,1.062,0,0,0,10.85,0Z" transform="translate(2.031 19.312) rotate(-45)" fill="#f6f4f5"/>
  </g>
</svg>
