<svg xmlns="http://www.w3.org/2000/svg" width="17.776" height="17.878" viewBox="0 0 17.776 17.878">
  <g id="menu-button-of-three-horizontal-lines" transform="translate(-2.031 -10.762)">
    <path id="Path_2912" data-name="Path 2912" d="M19.726,6H2.113A1.931,1.931,0,0,0,0,7.65,1.931,1.931,0,0,0,2.113,9.3H19.726a1.931,1.931,0,0,0,2.113-1.65A1.931,1.931,0,0,0,19.726,6Z" transform="translate(8.608 6.519) rotate(45)" fill="#f6f4f5"/>
    <path id="Path_2914" data-name="Path 2914" d="M19.726,94H2.113a1.7,1.7,0,1,0,0,3.3H19.726a1.7,1.7,0,1,0,0-3.3Z" transform="translate(-64.437 -40.162) rotate(-45)" fill="#f6f4f5"/>
  </g>
</svg>
