<svg xmlns="http://www.w3.org/2000/svg" width="51.996" height="51.996" viewBox="0 0 51.996 51.996">
  <g id="ionic-pillar" transform="translate(0 0)">
    <path id="Path_43874" data-name="Path 43874" d="M42.347,6.227l.742-4.453A1.523,1.523,0,0,0,41.587,0H10.409a1.523,1.523,0,0,0-1.5,1.774l.742,4.453A10.682,10.682,0,0,0,0,16.841a7.625,7.625,0,0,0,10.208,7.166L10.1,27.07a1.531,1.531,0,0,0-.042.349,1.5,1.5,0,0,0,.02.237l-.831,22.73a1.523,1.523,0,0,0,1.466,1.578h.057A1.523,1.523,0,0,0,12.287,50.5l.789-21.555H38.92L39.709,50.5a1.523,1.523,0,0,0,1.521,1.468h.057a1.523,1.523,0,0,0,1.467-1.578l-.965-26.38A7.625,7.625,0,0,0,52,16.841,10.682,10.682,0,0,0,42.347,6.227Zm-2.559-3.18-.522,3.131H12.729l-.522-3.131ZM15.067,15.479a15.821,15.821,0,0,1,2.828.684l.486.153v3.432c0,.018,0,.036,0,.054H14.649a7.563,7.563,0,0,0,.6-2.962v-.084a4.571,4.571,0,0,0-.183-1.277ZM37.346,19.8H33.612c0-.018,0-.036,0-.054v-3.47l.321-.1a14.753,14.753,0,0,1,3-.716,4.548,4.548,0,0,0-.189,1.3v.084a7.555,7.555,0,0,0,.6,2.962Zm-6.776,0H27.518c0-.018,0-.036,0-.054V17.213a28.971,28.971,0,0,0,3.047-.229v2.765c0,.018,0,.036,0,.054Zm-6.093,0H21.425c0-.018,0-.036,0-.054V16.989a30.243,30.243,0,0,0,3.047.224v2.535c0,.018,0,.036,0,.054ZM13.187,25.9l.111-3.046H38.7l.111,3.046ZM44.371,21.41a4.58,4.58,0,0,1-4.579-4.57v-.084a1.528,1.528,0,0,1,3.055,0,1.523,1.523,0,1,0,3.047,0,4.577,4.577,0,0,0-4.574-4.57H41.3c-4.97,0-6.668.555-8.31,1.092-1.432.468-2.786.91-6.991.91a19.71,19.71,0,0,1-7.181-.929c-1.661-.528-3.379-1.073-8.12-1.073h-.021A4.577,4.577,0,0,0,6.1,16.756a1.523,1.523,0,1,0,3.047,0,1.528,1.528,0,0,1,3.055,0v.084a4.578,4.578,0,0,1-9.157,0,7.631,7.631,0,0,1,7.629-7.617H41.32a7.632,7.632,0,0,1,7.629,7.617,4.579,4.579,0,0,1-4.578,4.57Zm0,0" fill="#424247"/>
    <path id="Path_43875" data-name="Path 43875" d="M163.632,320.012a1.523,1.523,0,0,0-1.615,1.427L161,337.889a1.523,1.523,0,0,0,1.427,1.614c.032,0,.064,0,.1,0a1.524,1.524,0,0,0,1.519-1.43l1.016-16.451A1.524,1.524,0,0,0,163.632,320.012Zm0,0" transform="translate(-144.649 -287.51)" fill="#424247"/>
    <path id="Path_43876" data-name="Path 43876" d="M242.523,320.012A1.523,1.523,0,0,0,241,321.535v16.451a1.523,1.523,0,1,0,3.047,0V321.535A1.523,1.523,0,0,0,242.523,320.012Zm0,0" transform="translate(-216.525 -287.513)" fill="#424247"/>
    <path id="Path_43877" data-name="Path 43877" d="M314.043,321.438a1.523,1.523,0,1,0-3.041.188l1.016,16.45a1.524,1.524,0,0,0,1.519,1.43l.1,0a1.524,1.524,0,0,0,1.427-1.615Zm0,0" transform="translate(-279.415 -287.51)" fill="#424247"/>
  </g>
</svg>
