<svg xmlns="http://www.w3.org/2000/svg" width="17.574" height="12.082" viewBox="0 0 17.574 12.082">
  <g id="eye_2_" data-name="eye (2)" transform="translate(0 -5.492)">
    <path id="Path_43912" data-name="Path 43912" d="M17.5,11.22c-1.54-3-4.891-5.728-8.711-5.728C4.94,5.492,1.6,8.251.076,11.22a.687.687,0,0,0,0,.627c1.54,3,4.891,5.728,8.711,5.728,4.326,0,7.515-3.4,8.711-5.728A.686.686,0,0,0,17.5,11.22ZM8.788,16.2c-3.116,0-5.731-2.07-7.31-4.668,1.561-2.569,4.168-4.668,7.31-4.668s5.74,2.085,7.31,4.668c-1.586,2.61-4.212,4.668-7.31,4.668Zm0-7.311c-1.86,0-3.372.783-3.372,2.643s1.513,2.448,3.372,2.448,3.372-.589,3.372-2.448S10.647,8.89,8.788,8.89Z" transform="translate(0)" fill="#e7ae6f"/>
  </g>
</svg>
