<svg xmlns="http://www.w3.org/2000/svg" width="17.574" height="17.574" viewBox="0 0 17.574 17.574">
  <g id="eye_2_" data-name="eye (2)" transform="translate(0)">
    <path id="Path_43912" data-name="Path 43912" d="M17.5,11.22c-1.54-3-4.891-5.728-8.711-5.728C4.94,5.492,1.6,8.251.076,11.22a.687.687,0,0,0,0,.627c1.54,3,4.891,5.728,8.711,5.728,4.326,0,7.515-3.4,8.711-5.728A.686.686,0,0,0,17.5,11.22ZM8.788,16.2c-3.116,0-5.731-2.07-7.31-4.668,1.561-2.569,4.168-4.668,7.31-4.668s5.74,2.085,7.31,4.668c-1.586,2.61-4.212,4.668-7.31,4.668ZM.217,3.816a.686.686,0,0,1,.97-.051L2.715,5.142A.687.687,0,1,1,1.8,6.162L.268,4.785a.686.686,0,0,1-.051-.97ZM8.1,3.432V.686a.686.686,0,1,1,1.373,0V3.432a.686.686,0,1,1-1.373,0ZM3.749,1.9A.687.687,0,1,1,5,1.345L6.053,3.7A.687.687,0,1,1,4.8,4.262Zm11.06,4.208a.687.687,0,0,1,.051-.97l1.529-1.377a.686.686,0,1,1,.919,1.02L15.779,6.162A.687.687,0,0,1,14.809,6.111ZM11.522,3.7l1.05-2.358a.687.687,0,1,1,1.254.558l-1.05,2.358A.686.686,0,1,1,11.522,3.7ZM8.788,8.161a3.372,3.372,0,1,0,3.372,3.372A3.376,3.376,0,0,0,8.788,8.161Zm0,5.372a2,2,0,1,1,2-2,2,2,0,0,1-2,2Z" transform="translate(0)" fill="#e7ae6f"/>
  </g>
</svg>
