<svg xmlns="http://www.w3.org/2000/svg" width="25.143" height="25.143" viewBox="0 0 25.143 25.143">
  <g id="aphrodite" transform="translate(0 0)">
    <path id="Path_44458" data-name="Path 44458" d="M25.047,24.041,23.99,22.185a9.523,9.523,0,0,0-2.547-2.9l-4.109-3.106v-2.86a4.025,4.025,0,1,0,1.219-7.563,7.6,7.6,0,0,0-1.974-3.479A7.506,7.506,0,0,0,11.261,0h-.055a7.571,7.571,0,0,0-7.57,7.481l-1.084,4.46a1.228,1.228,0,0,0,1.193,1.518h.583l.2,2.285v.013A2.7,2.7,0,0,0,7.9,18.083l1.546-.406v1L5.359,19.989A9.539,9.539,0,0,0,.741,23.206l-.584.746a.737.737,0,1,0,1.16.908l.584-.746a8.073,8.073,0,0,1,3.908-2.723l4.6-1.476a.736.736,0,0,0,.512-.7V17.29l.048-.013a.737.737,0,0,0-.374-1.425l-3.067.806A1.228,1.228,0,0,1,6,15.607l-.262-2.95A.737.737,0,0,0,5,11.985H4.057l1.031-4.24a.739.739,0,0,0,.021-.174A6.059,6.059,0,0,1,5.96,4.459c.05.091.094.188.142.3A3.014,3.014,0,0,0,7.239,6.189a3.013,3.013,0,0,0,1.735.577A1.738,1.738,0,0,1,10.594,7.9a3.2,3.2,0,0,0,2.872,2.008,1.6,1.6,0,0,1,.987.314,1.693,1.693,0,0,1,.656.821c.063.135.133.281.225.436a.57.57,0,0,1-.477.268.737.737,0,1,0,0,1.473,2.009,2.009,0,0,0,1-.27v3.593a.737.737,0,0,0,.293.588l4.4,3.328a8.054,8.054,0,0,1,2.155,2.455l1.057,1.857a.737.737,0,0,0,1.28-.729ZM19.163,7.18a2.551,2.551,0,1,1-1.613,4.527,7.492,7.492,0,0,0,1.228-4.083c0-.138,0-.276-.009-.413a2.589,2.589,0,0,1,.394-.031Zm-5.6,1.257A1.738,1.738,0,0,1,11.942,7.3a3.014,3.014,0,0,0-1.137-1.432A3.013,3.013,0,0,0,9.071,5.3a1.6,1.6,0,0,1-.987-.314,1.6,1.6,0,0,1-.633-.819A3.255,3.255,0,0,0,6.9,3.25l.007-.007a6.056,6.056,0,0,1,4.3-1.771h.044A6.18,6.18,0,0,1,17.3,7.614a6.037,6.037,0,0,1-.787,2.956c-.025-.049-.049-.1-.075-.156a3.121,3.121,0,0,0-1.144-1.4,3.014,3.014,0,0,0-1.735-.577Zm0,0" transform="translate(0 0)" fill="#f6f4f5"/>
    <path id="Path_44459" data-name="Path 44459" d="M127.065,175.738a.737.737,0,0,0,0,1.473h.509a.737.737,0,1,0,0-1.473Zm0,0" transform="translate(-120.124 -167.108)" fill="#f6f4f5"/>
  </g>
</svg>
