<svg id="brands-and-logotypes" xmlns="http://www.w3.org/2000/svg" width="19.63" height="19.63" viewBox="0 0 19.63 19.63">
  <path id="Path_43911" data-name="Path 43911" d="M4.6,106.188a5.182,5.182,0,0,1,.733-2.664v-3.309H2.025a9.82,9.82,0,0,0,0,11.945H5.334v-3.309A5.182,5.182,0,0,1,4.6,106.188Z" transform="translate(0 -96.373)" fill="#fbbd00"/>
  <path id="Path_43912" data-name="Path 43912" d="M198.3,373.691l-2.3,2.3,2.3,2.3a9.741,9.741,0,0,0,5.973-2.025v-3.305h-3.305A5.213,5.213,0,0,1,198.3,373.691Z" transform="translate(-188.485 -358.662)" fill="#0f9d58"/>
  <path id="Path_43913" data-name="Path 43913" d="M56.132,325.477l-3.309,3.309a9.976,9.976,0,0,0,.85.967,9.751,9.751,0,0,0,6.94,2.875v-4.6A5.216,5.216,0,0,1,56.132,325.477Z" transform="translate(-50.798 -312.998)" fill="#31aa52"/>
  <path id="Path_43914" data-name="Path 43914" d="M265.815,199.574a9.9,9.9,0,0,0-.161-1.778l-.086-.472H256v4.6h4.656a5.191,5.191,0,0,1-1.989,2.133l3.306,3.305a9.983,9.983,0,0,0,.967-.85A9.751,9.751,0,0,0,265.815,199.574Z" transform="translate(-246.185 -189.759)" fill="#3c79e6"/>
  <path id="Path_43915" data-name="Path 43915" d="M201.987,6.128l.407.407,3.253-3.253-.407-.407A9.751,9.751,0,0,0,198.3,0L196,2.3l2.3,2.3A5.18,5.18,0,0,1,201.987,6.128Z" transform="translate(-188.485 0)" fill="#cf2d48"/>
  <path id="Path_43916" data-name="Path 43916" d="M60.612,4.6V0a9.751,9.751,0,0,0-6.94,2.875,9.963,9.963,0,0,0-.85.967l3.309,3.309A5.216,5.216,0,0,1,60.612,4.6Z" transform="translate(-50.797 0)" fill="#eb4132"/>
</svg>
