<svg xmlns="http://www.w3.org/2000/svg" width="42.624" height="42.624" viewBox="0 0 42.624 42.624">
  <g id="museum" transform="translate(0 0.001)">
    <path id="Path_43961" data-name="Path 43961" d="M246.833,119.665a.833.833,0,1,0-.589-.244A.839.839,0,0,0,246.833,119.665Zm0,0" transform="translate(-225.521 -108.178)" fill="#242424"/>
    <path id="Path_43962" data-name="Path 43962" d="M41.791,37.628h-1v-2.5a.832.832,0,0,0-.832-.832h-.5V32.98a2.182,2.182,0,0,0-1.332-2.007V28.165a.832.832,0,1,0-1.665,0V30.8H34.8V18.98h1.665v2.694a.832.832,0,1,0,1.665,0V18.809A2.182,2.182,0,0,0,39.46,16.8V15.483h.5a.832.832,0,0,0,.832-.832V11.487h.083a.833.833,0,0,0,.374-1.577L21.685.088a.833.833,0,0,0-.747,0L1.375,9.911a.833.833,0,0,0,.374,1.577h.083v3.163a.832.832,0,0,0,.832.832h.5V16.8A2.181,2.181,0,0,0,4.5,18.808V30.972a2.181,2.181,0,0,0-1.332,2.007V34.3h-.5a.832.832,0,0,0-.832.832v2.5h-1A.832.832,0,0,0,0,38.46v3.33a.832.832,0,0,0,.832.832H41.791a.832.832,0,0,0,.832-.832V38.46a.832.832,0,0,0-.832-.832Zm-4.509-5.161a.514.514,0,0,1,.513.513V34.3H33.466V32.98a.514.514,0,0,1,.513-.513ZM29.914,34.3V32.98a2.182,2.182,0,0,0-1.332-2.007V18.809A2.182,2.182,0,0,0,29.914,16.8V15.483H31.8V16.8a2.181,2.181,0,0,0,1.332,2.007V30.972A2.181,2.181,0,0,0,31.8,32.979V34.3Zm-9.546,0V32.98a2.182,2.182,0,0,0-1.332-2.007V18.809A2.182,2.182,0,0,0,20.368,16.8V15.483h1.887V16.8a2.181,2.181,0,0,0,1.332,2.007V30.972a2.181,2.181,0,0,0-1.332,2.007V34.3Zm-9.546,0V32.98A2.182,2.182,0,0,0,9.49,30.972V18.809A2.182,2.182,0,0,0,10.822,16.8V15.483h1.887V16.8a2.181,2.181,0,0,0,1.332,2.007V30.972a2.181,2.181,0,0,0-1.332,2.007V34.3ZM6.16,18.98H7.825V30.8H6.16Zm9.546,0h1.665V30.8H15.706Zm3-2.178a.514.514,0,0,1-.513.513h-3.3a.514.514,0,0,1-.513-.513V15.483H18.7V16.8ZM14.374,32.98a.514.514,0,0,1,.513-.513h3.3a.514.514,0,0,1,.513.513V34.3H14.374Zm10.878-14h1.665V30.8H25.252Zm3-2.178a.514.514,0,0,1-.513.513h-3.3a.514.514,0,0,1-.513-.513V15.483h4.329ZM23.92,32.98a.514.514,0,0,1,.513-.513h3.3a.514.514,0,0,1,.513.513V34.3H23.92V32.98ZM37.8,16.8a.514.514,0,0,1-.513.513h-3.3a.514.514,0,0,1-.513-.513V15.483H37.8ZM17.177,11.487a.832.832,0,1,0,0-1.665H5.261l16.05-8.059,16.05,8.059H25.724a.832.832,0,1,0,0,1.665h13.4v2.331H3.5V11.487Zm-8.02,4V16.8a.514.514,0,0,1-.513.513h-3.3a.514.514,0,0,1-.513-.513V15.483ZM4.828,32.98a.514.514,0,0,1,.513-.513h3.3a.514.514,0,0,1,.513.513V34.3H4.828ZM3.5,35.963H39.127v1.665H3.5Zm37.462,4.995H1.665V39.293H40.959Zm0,0" fill="#242424"/>
    <path id="Path_43963" data-name="Path 43963" d="M438.833,289a.833.833,0,1,0,.589.244A.839.839,0,0,0,438.833,289Zm0,0" transform="translate(-401.537 -264.942)" fill="#242424"/>
  </g>
</svg>
