<svg xmlns="http://www.w3.org/2000/svg" width="15" height="15" viewBox="0 0 15 15">
  <path id="demeter" d="M14.9,3.972a4.186,4.186,0,0,0-1.007-.818,2.042,2.042,0,0,0,.226-.194A3.428,3.428,0,0,0,14.863.543a.44.44,0,0,0-.4-.4,3.405,3.405,0,0,0-2.419.749,2.048,2.048,0,0,0-.194.225A4.181,4.181,0,0,0,11.029.106a.44.44,0,0,0-.571,0A3.824,3.824,0,0,0,9.364,1.75a.44.44,0,0,0-.559.008A3.831,3.831,0,0,0,7.713,3.4a.439.439,0,0,0-.556.01A3.833,3.833,0,0,0,6.066,5.041a.439.439,0,0,0-.555.011A3.832,3.832,0,0,0,4.419,6.689a.439.439,0,0,0-.556.011A3.4,3.4,0,0,0,2.682,8.94a3.04,3.04,0,0,0,.849,1.908l-3.4,3.4a.44.44,0,1,0,.622.622l3.4-3.4a3.04,3.04,0,0,0,1.908.849A3.4,3.4,0,0,0,8.3,11.138a.439.439,0,0,0,.011-.556A3.834,3.834,0,0,0,9.949,9.491a.439.439,0,0,0,.011-.555A3.833,3.833,0,0,0,11.6,7.844a.439.439,0,0,0,.01-.556A3.832,3.832,0,0,0,13.243,6.2a.439.439,0,0,0,.008-.559A3.825,3.825,0,0,0,14.9,4.543a.44.44,0,0,0,0-.571ZM13.98,1.02c-.006.084-.016.176-.032.273a1.93,1.93,0,0,1-.456,1.045,2.173,2.173,0,0,1-1.318.488,2.132,2.132,0,0,1,.488-1.318A2.123,2.123,0,0,1,13.98,1.02Zm-3.239.049a2.144,2.144,0,0,1,.588,1.277,1.931,1.931,0,0,1-.416,1.062c-.058.08-.116.152-.171.216a2.122,2.122,0,0,1-.585-1.277,2.123,2.123,0,0,1,.585-1.277ZM9.088,2.722A2.143,2.143,0,0,1,9.676,4,1.93,1.93,0,0,1,9.26,5.06c-.058.08-.116.152-.171.216a2.946,2.946,0,0,1-.407-.6c-.013-.028-.026-.056-.039-.083A1.481,1.481,0,0,1,8.5,4a2.122,2.122,0,0,1,.585-1.277ZM7.44,4.37a2.144,2.144,0,0,1,.588,1.277,1.929,1.929,0,0,1-.416,1.062c-.058.079-.116.152-.17.215a2.132,2.132,0,0,1-.586-1.277A2.122,2.122,0,0,1,7.44,4.37ZM5.794,6.016a3.049,3.049,0,0,1,.4.58q.028.063.058.123a1.452,1.452,0,0,1,.131.573,1.931,1.931,0,0,1-.416,1.062c-.058.08-.116.152-.171.216a2.122,2.122,0,0,1-.585-1.277A2.122,2.122,0,0,1,5.794,6.016ZM4.147,7.663a3.029,3.029,0,0,1,.405.593q.023.05.047.1a1.459,1.459,0,0,1,.136.584A1.931,1.931,0,0,1,4.318,10c-.058.08-.116.152-.171.216A2.122,2.122,0,0,1,3.562,8.94a2.122,2.122,0,0,1,.585-1.277ZM6.061,11.44a2.122,2.122,0,0,1-1.277-.585,2.143,2.143,0,0,1,1.277-.588,1.515,1.515,0,0,1,.641.163l.014.007a2.707,2.707,0,0,1,.407.247c.079.058.151.116.215.17a2.131,2.131,0,0,1-1.277.586ZM7.708,9.792a2.123,2.123,0,0,1-1.277-.585c.064-.055.136-.113.216-.171A1.93,1.93,0,0,1,7.708,8.62a1.468,1.468,0,0,1,.584.136l.1.046a2.741,2.741,0,0,1,.381.234c.079.058.151.116.215.171a2.131,2.131,0,0,1-1.277.586ZM9.355,8.146a2.122,2.122,0,0,1-1.277-.585,2.143,2.143,0,0,1,1.277-.588,1.93,1.93,0,0,1,1.062.416c.079.058.151.116.215.17a2.132,2.132,0,0,1-1.277.586ZM11,6.5a1.48,1.48,0,0,1-.6-.139l-.083-.039a2.944,2.944,0,0,1-.6-.407A2.143,2.143,0,0,1,11,5.325a1.93,1.93,0,0,1,1.062.416c.079.058.152.116.215.171A2.132,2.132,0,0,1,11,6.5Zm1.653-1.653a2.122,2.122,0,0,1-1.277-.585,2.143,2.143,0,0,1,1.277-.588,1.93,1.93,0,0,1,1.062.416c.079.058.151.116.215.17a2.132,2.132,0,0,1-1.277.586Zm0,0" transform="translate(-0.001 0)" fill="#e7ae6f"/>
</svg>
