<svg xmlns="http://www.w3.org/2000/svg" width="42.702" height="42.722" viewBox="0 0 42.702 42.722">
  <g id="archeology" transform="translate(-0.501 0.001)">
    <path id="Path_43964" data-name="Path 43964" d="M32.783,14.37,21.816,10.751a.829.829,0,0,0-.236-.476L19.112,7.807a.834.834,0,0,0-1.18,0l-1.06,1.06L7.644,1.03A4.336,4.336,0,0,0,1.532,7.141L9.369,16.37,8.31,17.43a.834.834,0,0,0,0,1.18l2.467,2.467a.829.829,0,0,0,.476.236l3.619,10.968a.834.834,0,0,0,.792.573,17.634,17.634,0,0,0,12.409-5.095.751.751,0,0,0,.171-.171,17.634,17.634,0,0,0,5.112-12.426.835.835,0,0,0-.573-.792ZM2.8,6.061A2.668,2.668,0,0,1,6.563,2.3l9.125,7.75-5.135,5.135ZM10.08,18.02l1.013-1.013h0l6.415-6.415h0l1.014-1.013,1.287,1.287-8.443,8.443Zm2.611,2.324,8.156-8.156,10.83,3.574a15.951,15.951,0,0,1-.73,4.221L25.1,17.094a.835.835,0,0,0-.74,1.5l5.993,2.964a16.071,16.071,0,0,1-2.8,4.336l-3.732-3.732a.835.835,0,0,0-1.18,1.18l3.731,3.731a16.067,16.067,0,0,1-4.319,2.786l-2.964-5.993a.835.835,0,0,0-1.5.74l2.889,5.842a15.924,15.924,0,0,1-4.221.73Zm0,0" transform="translate(0 0)" fill="#242424"/>
    <path id="Path_43965" data-name="Path 43965" d="M236.791,237.317a.835.835,0,1,0-.59-.245A.84.84,0,0,0,236.791,237.317Zm0,0" transform="translate(-215.809 -215.987)" fill="#242424"/>
    <path id="Path_43966" data-name="Path 43966" d="M55.931,41.494a.834.834,0,1,0-1.18,1.18l3.286,3.285a.834.834,0,1,0,1.18-1.18Zm0,0" transform="translate(-49.5 -37.809)" fill="#242424"/>
    <path id="Path_43967" data-name="Path 43967" d="M119.682,105.245a.834.834,0,1,0,.244.59A.841.841,0,0,0,119.682,105.245Zm0,0" transform="translate(-107.931 -96.24)" fill="#242424"/>
    <path id="Path_43968" data-name="Path 43968" d="M429.059,97.565a4.183,4.183,0,0,0,2.967-1.227,3.523,3.523,0,0,0,0-4.983,2.986,2.986,0,0,0-4.222,0,2.559,2.559,0,0,0,0,3.614,2.214,2.214,0,0,0,3.127,0,.834.834,0,0,0-1.18-1.18.543.543,0,0,1-.767,0,.887.887,0,0,1,0-1.254,1.316,1.316,0,0,1,1.862,0,1.854,1.854,0,0,1,0,2.623,2.529,2.529,0,0,1-3.573,0,.835.835,0,0,0-1.18,1.18A4.182,4.182,0,0,0,429.059,97.565Zm0,0" transform="translate(-389.856 -82.932)" fill="#242424"/>
    <path id="Path_43969" data-name="Path 43969" d="M272.505,400.5a.834.834,0,1,0,0,1.669,3.411,3.411,0,0,1,3.407,3.407,2.562,2.562,0,0,1-2.559,2.559,1.882,1.882,0,0,1-1.88-1.88,1.339,1.339,0,0,1,1.337-1.337.9.9,0,0,1,.9.9.834.834,0,1,0,1.669,0,2.575,2.575,0,0,0-2.572-2.572,3.009,3.009,0,0,0-3.006,3.006,3.553,3.553,0,0,0,3.549,3.549,4.232,4.232,0,0,0,4.227-4.227A5.082,5.082,0,0,0,272.505,400.5Zm0,0" transform="translate(-246.833 -367.087)" fill="#242424"/>
    <path id="Path_43970" data-name="Path 43970" d="M403.633,290.432a3.378,3.378,0,0,1-3.374-3.374.834.834,0,1,0-1.669,0,5.049,5.049,0,0,0,5.043,5.043.834.834,0,1,0,0-1.669Zm0,0" transform="translate(-364.872 -262.341)" fill="#242424"/>
    <path id="Path_43971" data-name="Path 43971" d="M493.092,336.672a.833.833,0,1,0,.59.243A.84.84,0,0,0,493.092,336.672Zm0,0" transform="translate(-450.724 -308.581)" fill="#242424"/>
    <path id="Path_43972" data-name="Path 43972" d="M375.092,374a.834.834,0,1,0,.59.244A.841.841,0,0,0,375.092,374Zm0,0" transform="translate(-342.57 -342.794)" fill="#242424"/>
    <path id="Path_43973" data-name="Path 43973" d="M435.092,446.25a.835.835,0,1,0,.59.245A.84.84,0,0,0,435.092,446.25Zm0,0" transform="translate(-397.564 -409.016)" fill="#242424"/>
    <path id="Path_43974" data-name="Path 43974" d="M459.889,260a.835.835,0,1,0,.59.244A.84.84,0,0,0,459.889,260Zm0,0" transform="translate(-420.292 -238.307)" fill="#242424"/>
    <path id="Path_43975" data-name="Path 43975" d="M196.3,413.668a.836.836,0,1,0,.59.245A.836.836,0,0,0,196.3,413.668Zm0,0" transform="translate(-178.7 -379.152)" fill="#242424"/>
  </g>
</svg>
