<svg xmlns="http://www.w3.org/2000/svg" width="12.112" height="7.154" viewBox="0 0 12.112 7.154">
  <g id="multimedia-option" transform="translate(12.112 7.154) rotate(180)">
    <g id="Group_4891" data-name="Group 4891" transform="translate(0)">
      <path id="Path_43865" data-name="Path 43865" d="M11.919,6.556l-.4.4a.664.664,0,0,1-.937,0L6.059,2.43,1.528,6.961a.664.664,0,0,1-.937,0l-.4-.4a.663.663,0,0,1,0-.937L5.589.213A.677.677,0,0,1,6.058,0h0a.677.677,0,0,1,.468.213l5.39,5.4a.669.669,0,0,1,.194.473A.663.663,0,0,1,11.919,6.556Z" transform="translate(0)" fill="#e7ae6f"/>
    </g>
  </g>
</svg>
