<svg xmlns="http://www.w3.org/2000/svg" width="16.826" height="21" viewBox="0 0 16.826 21">
  <g id="pin" transform="translate(-50.885)">
    <g id="Group_6832" data-name="Group 6832" transform="translate(55.399 4.514)">
      <g id="Group_6831" data-name="Group 6831" transform="translate(0)">
        <path id="Path_44481" data-name="Path 44481" d="M164.846,110.062a3.9,3.9,0,1,0,3.9,3.9A3.9,3.9,0,0,0,164.846,110.062Zm0,6.156a2.257,2.257,0,1,1,2.257-2.257A2.26,2.26,0,0,1,164.846,116.218Z" transform="translate(-160.947 -110.062)" fill="#e7ae6f"/>
      </g>
    </g>
    <g id="Group_6834" data-name="Group 6834" transform="translate(50.885)">
      <g id="Group_6833" data-name="Group 6833" transform="translate(0)">
        <path id="Path_44482" data-name="Path 44482" d="M59.3,0a8.423,8.423,0,0,0-8.413,8.413v.233c0,2.346,1.345,5.08,4,8.126a34.584,34.584,0,0,0,3.9,3.812L59.3,21l.516-.417a34.575,34.575,0,0,0,3.9-3.812c2.653-3.046,4-5.78,4-8.126V8.413A8.423,8.423,0,0,0,59.3,0ZM66.07,8.646c0,3.965-5.109,8.764-6.772,10.221-1.663-1.457-6.772-6.257-6.772-10.221V8.413a6.772,6.772,0,0,1,13.543,0Z" transform="translate(-50.885)" fill="#e7ae6f"/>
      </g>
    </g>
  </g>
</svg>
