<svg xmlns="http://www.w3.org/2000/svg" width="24.851" height="24.851" viewBox="0 0 24.851 24.851">
  <g id="apollo" transform="translate(0 0.001)">
    <path id="Path_43872" data-name="Path 43872" d="M24.756,23.761l-1.045-1.835a9.412,9.412,0,0,0-2.518-2.867l-4.062-3.07V11.879a7.428,7.428,0,0,0,.889-1.6c.48.146.813.212.846.218a.728.728,0,0,0,.866-.76c0-.012-.008-.122-.029-.3a3.236,3.236,0,0,0-.141-5.373,3.236,3.236,0,0,0-1.7-2.626,3.2,3.2,0,0,0-2.013-.349A3.237,3.237,0,0,0,11.59.575,3.244,3.244,0,0,0,9.749,0,3.2,3.2,0,0,0,7.81.643,3.236,3.236,0,0,0,3.931,5.359a6.5,6.5,0,0,0-.337,2.034L2.522,11.8A1.213,1.213,0,0,0,3.7,13.3h.576l.2,2.259v.013a2.669,2.669,0,0,0,3.333,2.3l1.528-.4v.988L5.3,19.755a9.429,9.429,0,0,0-4.564,3.18l-.577.738a.728.728,0,1,0,1.147.9l.577-.737a7.979,7.979,0,0,1,3.862-2.691l4.549-1.458a.728.728,0,0,0,.506-.693v-1.9l.047-.013a.728.728,0,0,0-.37-1.408l-3.031.8a1.214,1.214,0,0,1-1.514-1.04l-.259-2.915a.728.728,0,0,0-.725-.664H4.01L5.029,7.654a.73.73,0,0,0,.02-.172,4.929,4.929,0,0,1,.369-1.939.727.727,0,0,0-.1-.743,1.76,1.76,0,0,1-.4-1.118A1.779,1.779,0,0,1,7.577,2.135a.728.728,0,0,0,.886-.129,1.778,1.778,0,0,1,2.594.024.728.728,0,0,0,.535.234h0a.728.728,0,0,0,.535-.235,1.78,1.78,0,0,1,2.814.259.728.728,0,0,0,.842.3,1.779,1.779,0,0,1,2.325,1.841.728.728,0,0,0,.434.728,1.776,1.776,0,0,1,.8,2.57,4.392,4.392,0,0,0-1.415-2.239,10.2,10.2,0,0,0-3.575-1.564.728.728,0,0,0-.876.761,8.9,8.9,0,0,0,.145,1.026,3.028,3.028,0,0,0-.483-.093,10.193,10.193,0,0,0-3.87.506.728.728,0,0,0-.357,1.1,9.415,9.415,0,0,0,1.08,1.245A4.737,4.737,0,0,0,12.674,9.95a6.37,6.37,0,0,0,.679.035A9.166,9.166,0,0,0,15.108,9.8a.924.924,0,0,1-.057,1.843.728.728,0,1,0,0,1.456,2.317,2.317,0,0,0,.625-.086V16.35a.728.728,0,0,0,.289.581l1.7,1.282L8.142,23.484a.728.728,0,0,0,.705,1.274l9.4-5.208-.05,4.563a.728.728,0,0,0,.72.736h.008a.728.728,0,0,0,.728-.72l.048-4.371.61.461a7.962,7.962,0,0,1,2.13,2.426l1.045,1.835a.728.728,0,0,0,1.265-.72ZM17.047,6.651a3.817,3.817,0,0,1,1.072,2.127c-.076-.026-.155-.054-.236-.084a.742.742,0,0,0-.113-.044l-.007,0a7.519,7.519,0,0,1-1.058-.5.726.726,0,0,0-.118-.071c-.142-.087-.28-.18-.412-.279a2.344,2.344,0,0,1-.639-.84.745.745,0,0,0-.058-.122,6.268,6.268,0,0,1-.384-1.181A7.332,7.332,0,0,1,17.047,6.651ZM12.829,8.5A3.869,3.869,0,0,1,10.8,7.225a7.331,7.331,0,0,1,2.185-.156,2.717,2.717,0,0,1,1.285.606,4.358,4.358,0,0,0,.455.717,6.707,6.707,0,0,1-1.894.111Zm0,0" transform="translate(0 0)" fill="#fff"/>
    <path id="Path_43873" data-name="Path 43873" d="M127.567,175.75h-.5a.728.728,0,1,0,0,1.456h.5a.728.728,0,1,0,0-1.456Zm0,0" transform="translate(-120.203 -167.221)" fill="#fff"/>
  </g>
</svg>
