<svg xmlns="http://www.w3.org/2000/svg" width="59.308" height="59.308" viewBox="0 0 59.308 59.308">
  <g id="masks" transform="translate(0 0)">
    <g id="Group_6834" data-name="Group 6834" transform="translate(0 0)">
      <path id="Path_44484" data-name="Path 44484" d="M493.174,143.394a1.158,1.158,0,1,1,1.134-.923A1.168,1.168,0,0,1,493.174,143.394Z" transform="translate(-435.025 -124.739)" fill="#e7ae6f"/>
      <path id="Path_44485" data-name="Path 44485" d="M58.149,13.44a1.158,1.158,0,0,0,1.158-1.158V5.772a1.158,1.158,0,0,0-.843-1.115L42.175.044a1.157,1.157,0,0,0-.631,0L25.253,4.658a1.158,1.158,0,0,0-.843,1.115v9.871l-6.646-1.882a1.157,1.157,0,0,0-.631,0L.843,18.374A1.158,1.158,0,0,0,0,19.489V39.127A18.624,18.624,0,0,0,10.131,55.7l6.79,3.479a1.158,1.158,0,0,0,1.057,0l6.79-3.479a18.624,18.624,0,0,0,9.9-13.652l6.664,3.415a1.158,1.158,0,0,0,1.057,0l6.79-3.479A18.624,18.624,0,0,0,59.308,25.41V22.755a1.158,1.158,0,1,0-2.317,0V25.41A16.241,16.241,0,0,1,48.12,39.923l-6.261,3.209s-6.734-3.458-6.966-3.592c0,0,0-.382,0-.413V34.05a1.153,1.153,0,0,0,.614.176H48.206a1.158,1.158,0,0,0,1.158-1.158v-.576A7.506,7.506,0,0,0,34.9,29.685V20.511h1.219a1.158,1.158,0,0,0,1.158-1.158V15.685a1.158,1.158,0,1,0-2.317,0v2.509H33.417L26.727,16.3V6.648L41.859,2.362,56.991,6.648v5.634a1.158,1.158,0,0,0,1.158,1.158ZM41.859,27.3a5.2,5.2,0,0,1,5.157,4.606H36.7A5.2,5.2,0,0,1,41.859,27.3ZM23.71,53.639l-6.261,3.209-6.261-3.209A16.24,16.24,0,0,1,2.317,39.127V20.365l15.132-4.286,15.132,4.286V39.127q0,.058,0,.116s-.012.582-.029.865q0,.015,0,.03a16.233,16.233,0,0,1-8.84,13.5Z" transform="translate(0 0)" fill="#e7ae6f"/>
      <path id="Path_44486" data-name="Path 44486" d="M404.849,131.388h-2.754a1.158,1.158,0,0,1-1.158-1.158v-3.667a1.158,1.158,0,0,1,2.317,0v2.509h1.6a1.158,1.158,0,1,1,0,2.317Z" transform="translate(-354.493 -110.878)" fill="#e7ae6f"/>
      <g id="Group_6833" data-name="Group 6833" transform="translate(7.794 27.084)">
        <g id="Group_6831" data-name="Group 6831" transform="translate(14.238)">
          <path id="Path_44487" data-name="Path 44487" d="M194.119,239.8h-2.754a1.158,1.158,0,0,1-1.158-1.158v-3.667a1.158,1.158,0,0,1,2.317,0v2.509h1.6a1.158,1.158,0,0,1,0,2.317Z" transform="translate(-190.206 -233.818)" fill="#e7ae6f"/>
        </g>
        <g id="Group_6832" data-name="Group 6832">
          <path id="Path_44488" data-name="Path 44488" d="M71.2,239.8H68.444a1.158,1.158,0,0,1,0-2.317h1.6v-2.509a1.158,1.158,0,1,1,2.317,0v3.667A1.158,1.158,0,0,1,71.2,239.8Z" transform="translate(-67.286 -233.818)" fill="#e7ae6f"/>
        </g>
      </g>
      <path id="Path_44489" data-name="Path 44489" d="M93.344,353.356a7.514,7.514,0,0,1-7.506-7.506v-.576A1.158,1.158,0,0,1,87,344.116H99.691a1.158,1.158,0,0,1,1.158,1.158v.576A7.514,7.514,0,0,1,93.344,353.356Zm-5.156-6.923a5.189,5.189,0,0,0,10.313,0Z" transform="translate(-75.895 -304.255)" fill="#e7ae6f"/>
    </g>
  </g>
</svg>
