<svg xmlns="http://www.w3.org/2000/svg" width="33.081" height="31.677" viewBox="0 0 33.081 31.677">
  <g id="cornucopia" transform="matrix(0.978, -0.208, 0.208, 0.978, -1.47, 1.353)">
    <path id="Path_43898" data-name="Path 43898" d="M19.166,90.548a30.818,30.818,0,0,1-1.9,3.345c-1.449,2.468-3.1,3.719-4.894,3.719-1.458,0-3.574-.677-5.381-3.9a16.881,16.881,0,0,1-2.017-7.778c0-4.257-2.238-5.393-3.56-5.393a.917.917,0,0,0,0,1.835,1.308,1.308,0,0,1,.881.457,4.391,4.391,0,0,1,.845,3.092c-.006.235-.037.619-.077,1.1a34.708,34.708,0,0,0,.391,10.42,13.631,13.631,0,0,0,2.6,5.645,10,10,0,0,0,5.8,3.462,15.793,15.793,0,0,0,3.33.372,12.744,12.744,0,0,0,5.41-1.183c1.995-.918,6.567-4.858,7.358-5.526a1.577,1.577,0,0,0,.609-1.976c-.3-.525-5.7-6.355-7.359-8.119A1.408,1.408,0,0,0,19.166,90.548Zm-1.014,5.359,5.049,5.959a16.448,16.448,0,0,1-2.53,1.779l-3.709-6.309a11.564,11.564,0,0,0,1.19-1.429Zm-1.836,9.124-1.845-5.985a6.354,6.354,0,0,0,1.052-.538L19,104.417a10.851,10.851,0,0,1-2.681.614ZM5.393,94.606a12.068,12.068,0,0,0,1.76,2.428l-1.292,2.04a15.1,15.1,0,0,1-.616-2.04,22.646,22.646,0,0,1-.51-3.747c.2.457.422.9.658,1.319Zm2.081,7.323A8.988,8.988,0,0,1,6.812,101l1.749-2.761a6.666,6.666,0,0,0,3.814,1.206c.1,0,.2,0,.3-.009l1.734,5.625a14.42,14.42,0,0,1-2.169-.3,8.209,8.209,0,0,1-4.763-2.831Zm17.149-1.318-.045.041-5.412-6.387a20.491,20.491,0,0,0,1.07-2.332l2.042,2.2a2.776,2.776,0,0,0,.279.3L26.717,98.9a15.538,15.538,0,0,0-2.094,1.71Z" transform="translate(0 -75.819)" fill="#e7ae6f"/>
  </g>
</svg>
