<svg xmlns="http://www.w3.org/2000/svg" width="27.398" height="27.398" viewBox="0 0 27.398 27.398">
  <g id="papyrus" transform="translate(0)">
    <path id="Path_44462" data-name="Path 44462" d="M27.026,22.582H24.188V3.211A3.214,3.214,0,0,0,20.977,0H3.211a3.211,3.211,0,0,0,0,6.421H4.816V24.187A3.214,3.214,0,0,0,8.027,27.4H24.188A3.214,3.214,0,0,0,27.4,24.187,4.464,4.464,0,0,0,27.026,22.582ZM4.816,4.816H3.211A1.605,1.605,0,1,1,4.816,3.211ZM8.027,25.793a1.607,1.607,0,0,1-1.605-1.605V3.211A3.19,3.19,0,0,0,5.99,1.605H20.977a1.607,1.607,0,0,1,1.605,1.605V22.582H9.163a5.474,5.474,0,0,1,.469,1.605,1.607,1.607,0,0,1-1.605,1.605Zm16.161,0H10.807a3.194,3.194,0,0,0,.431-1.606H25.793a1.608,1.608,0,0,1-1.605,1.606Zm0,0" fill="#e7ae6f"/>
    <path id="Path_44463" data-name="Path 44463" d="M210,90h6.528v1.605H210Zm0,0" transform="translate(-198.762 -85.184)" fill="#e7ae6f"/>
    <path id="Path_44464" data-name="Path 44464" d="M150,151h12.95v1.605H150Zm0,0" transform="translate(-141.973 -142.92)" fill="#e7ae6f"/>
    <path id="Path_44465" data-name="Path 44465" d="M150,211h12.95v1.605H150Zm0,0" transform="translate(-141.973 -199.709)" fill="#e7ae6f"/>
    <path id="Path_44466" data-name="Path 44466" d="M150,271h12.95v1.605H150Zm0,0" transform="translate(-141.973 -256.498)" fill="#e7ae6f"/>
    <path id="Path_44467" data-name="Path 44467" d="M270,331h6.528v1.605H270Zm0,0" transform="translate(-255.552 -313.287)" fill="#e7ae6f"/>
  </g>
</svg>
