<svg xmlns="http://www.w3.org/2000/svg" width="44.198" height="44.271" viewBox="0 0 44.198 44.271">
  <g id="viking-ship" transform="translate(0 0)">
    <path id="Path_43976" data-name="Path 43976" d="M43.315,19.8a6.657,6.657,0,0,0-2.724.753A5.07,5.07,0,0,0,37.967,24l-.587,1.325a8.31,8.31,0,0,1-7.592,4.94H22.927V27.38h9.735a.865.865,0,0,0,.794-.523l.363-.845A21.548,21.548,0,0,0,33.989,9.4h.957a.865.865,0,1,0,0-1.729H22.927V6.571h11.1a.865.865,0,0,0,.39-1.636l-3.26-1.65,3.26-1.65A.865.865,0,0,0,34.024,0H22.063A.865.865,0,0,0,21.2.864v6.8H8.257a.865.865,0,0,0,0,1.729h.609a19.823,19.823,0,0,1,.121,15.934l-.363.845a.865.865,0,0,0,.794,1.206H21.2v2.883H9.24a1.627,1.627,0,0,1-1.371-.745L5.931,26.523A3.348,3.348,0,0,0,3.363,25a.889.889,0,0,0-.128-.01l-.048,0-.078,0H2a.865.865,0,0,0,0,1.729h.351a15.5,15.5,0,0,1-1.337,5.845,18.46,18.46,0,0,0-.751,2.13.858.858,0,0,0-.105.413c0,.007,0,.013,0,.02a7.506,7.506,0,0,0,1.428,6.168A7.613,7.613,0,0,0,7.652,44.27H34.145A7.636,7.636,0,0,0,41.714,35.6a36.5,36.5,0,0,0-1.15-4.923,20.671,20.671,0,0,1-1.035-5.114,5.317,5.317,0,0,1,.1-1.045l.676-1.527a3.417,3.417,0,0,1,1.055-.889,4.951,4.951,0,0,1,2-.575.865.865,0,0,0-.041-1.729ZM28.849,4.057l1.551.785H22.927V1.729H30.4l-1.551.785a.865.865,0,0,0,0,1.543Zm-16.887,9.5h8.025a.865.865,0,0,0,0-1.729H11.567a21.548,21.548,0,0,0-.82-2.429H32.111A19.818,19.818,0,0,1,33.434,21.5H23.316a.865.865,0,1,0,0,1.729H33a19.8,19.8,0,0,1-.764,2.1l-.138.322H10.727a21.547,21.547,0,0,0,1.235-12.1ZM39.709,34.24h-3.9a.865.865,0,1,0,0,1.729h4.2a5.889,5.889,0,0,1-.493,3.113h-9.13a.865.865,0,1,0,0,1.729h7.929a5.912,5.912,0,0,1-4.176,1.729H7.652a5.887,5.887,0,0,1-4.187-1.729H8.2a.865.865,0,1,0,0-1.729H2.258a5.758,5.758,0,0,1-.484-3.113h8.749a3.286,3.286,0,1,0,5.786,0H16.7a.865.865,0,0,0,0-1.729H2.222c.124-.343.26-.684.4-1.036a17.17,17.17,0,0,0,1.448-6.174,1.635,1.635,0,0,1,.408.432l1.939,2.995A3.35,3.35,0,0,0,9.24,31.992H29.789a10.041,10.041,0,0,0,8.236-4.3c.208,1.1.536,2.263.875,3.462.288,1.016.581,2.055.81,3.09ZM14.972,37.526a1.556,1.556,0,1,1-1.556-1.556A1.558,1.558,0,0,1,14.972,37.526Zm0,0" transform="translate(0 0)" fill="#242424"/>
    <path id="Path_43977" data-name="Path 43977" d="M242.1,396H231.224a.865.865,0,1,0,0,1.729h.808a3.286,3.286,0,1,0,5.786,0H242.1a.865.865,0,0,0,0-1.729Zm-5.62,3.286a1.556,1.556,0,1,1-1.556-1.556A1.558,1.558,0,0,1,236.481,399.286Zm0,0" transform="translate(-210.441 -361.76)" fill="#242424"/>
    <path id="Path_43978" data-name="Path 43978" d="M219.025,248.672a.863.863,0,1,0,.611.252A.871.871,0,0,0,219.025,248.672Zm0,0" transform="translate(-199.296 -227.17)" fill="#242424"/>
    <path id="Path_43979" data-name="Path 43979" d="M264.025,138.479a.865.865,0,1,0-.611-.253A.871.871,0,0,0,264.025,138.479Zm0,0" transform="translate(-240.405 -124.926)" fill="#242424"/>
  </g>
</svg>
