<svg xmlns="http://www.w3.org/2000/svg" width="50" height="50" viewBox="0 0 50 50">
  <path id="qr-code_1_" data-name="qr-code (1)" d="M.91,5.6A1.465,1.465,0,0,1-.555,7.062,1.465,1.465,0,0,1-2.02,5.6V-.555A1.465,1.465,0,0,1-.555-2.02H5.6A1.465,1.465,0,0,1,7.062-.555,1.465,1.465,0,0,1,5.6.91H.91ZM21.125,37.043a1.465,1.465,0,1,1,0-2.93h1.27a1.465,1.465,0,1,1,0,2.93ZM22.2,17.511a1.465,1.465,0,0,1-2.93,0v-1.27a1.465,1.465,0,0,1,2.93,0Zm8.984,16.406a1.465,1.465,0,0,1,0-2.93h1.27a1.465,1.465,0,0,1,0,2.93ZM.959,24.445H7.775a1.449,1.449,0,0,0-.029.293v4.395a1.465,1.465,0,0,0,2.93,0V24.738a1.449,1.449,0,0,0-.029-.293h12.92v1.66H15.851a1.465,1.465,0,0,0,0,2.93h9.18A1.465,1.465,0,0,0,26.5,27.57V24.445h5.469v4.3a1.465,1.465,0,1,0,2.93,0v-4.3H45a1.465,1.465,0,0,0,0-2.93H38.312V18.683h1.465a1.465,1.465,0,0,0,0-2.93H32.453a1.465,1.465,0,0,0,0,2.93h2.93v2.832H26.5V17.707a1.465,1.465,0,0,0-2.93,0v3.809H.959a1.465,1.465,0,0,0,0,2.93ZM26.3,6.476a1.465,1.465,0,1,1,2.93,0v7.715a1.465,1.465,0,1,1-2.93,0Zm-8.691.586h3.32V6.476a1.465,1.465,0,1,1,2.93,0v4.883a1.465,1.465,0,1,1-2.93,0V9.992h-3.32v.684a1.465,1.465,0,0,1-2.93,0v-4.2a1.465,1.465,0,1,1,2.93,0ZM5.89,18.586a1.465,1.465,0,0,1,0-2.93H16.73a1.465,1.465,0,0,1,0,2.93ZM37.824,38.019v1.465a1.465,1.465,0,1,0,2.93,0V30.695a1.465,1.465,0,1,0-2.93,0v4.395H32.941a1.465,1.465,0,0,0,0,2.93Zm-14.941,2.93h4.395a1.465,1.465,0,0,0,1.465-1.465v-7.52a1.465,1.465,0,1,0-2.93,0v6.055h-2.93a1.465,1.465,0,1,0,0,2.93Zm-8.105-8.887a1.465,1.465,0,0,1,2.93,0v4.3a1.465,1.465,0,1,1-2.93,0Zm-8.887-.2h6.152a1.465,1.465,0,0,1,1.465,1.465v6.152a1.465,1.465,0,0,1-1.465,1.465H5.891a1.465,1.465,0,0,1-1.465-1.465V33.332a1.465,1.465,0,0,1,1.465-1.465Zm4.687,2.93H7.355v3.223h3.223ZM33.918,5.011H40.07a1.465,1.465,0,0,1,1.465,1.465v6.152a1.465,1.465,0,0,1-1.465,1.465H33.918a1.465,1.465,0,0,1-1.465-1.465V6.476A1.465,1.465,0,0,1,33.918,5.011Zm4.687,2.93H35.383v3.223h3.223ZM5.891,5.011A1.465,1.465,0,0,0,4.426,6.476v6.152a1.465,1.465,0,0,0,1.465,1.465h6.152a1.465,1.465,0,0,0,1.465-1.465V6.476a1.465,1.465,0,0,0-1.465-1.465Zm4.687,2.93v3.223H7.355V7.941ZM45.051,40.363a1.465,1.465,0,1,1,2.93,0v6.152a1.465,1.465,0,0,1-1.465,1.465H40.363a1.465,1.465,0,0,1,0-2.93h4.687Zm-47.07,0v6.152A1.465,1.465,0,0,0-.555,47.98H5.6a1.465,1.465,0,1,0,0-2.93H.91V40.363A1.465,1.465,0,0,0-.555,38.9a1.465,1.465,0,0,0-1.465,1.465ZM47.98,5.6V-.555A1.465,1.465,0,0,0,46.516-2.02H40.363A1.465,1.465,0,0,0,38.9-.555,1.465,1.465,0,0,0,40.363.91h4.687V5.6a1.465,1.465,0,1,0,2.93,0Zm0,0" transform="translate(2.02 2.02)" fill="#d9b384" fill-rule="evenodd"/>
</svg>
