<svg id="Layer_2_16_" xmlns="http://www.w3.org/2000/svg" width="16.84" height="16.717" viewBox="0 0 16.84 16.717">
  <g id="Group_1149" data-name="Group 1149" transform="translate(0 0)">
    <path id="Path_1015" data-name="Path 1015" d="M253.642,423.175c-.139.035-.28.065-.421.091a.677.677,0,0,0,.247,1.331c.167-.031.336-.068.5-.109a.677.677,0,0,0-.327-1.314Z" transform="translate(-243.521 -407.899)" fill="#f6f4f5"/>
    <path id="Path_1016" data-name="Path 1016" d="M412.656,137.543a.677.677,0,0,0,1.285-.426c-.054-.162-.113-.324-.176-.482a.677.677,0,1,0-1.257.5C412.561,137.271,412.611,137.408,412.656,137.543Z" transform="translate(-397.529 -131.341)" fill="#f6f4f5"/>
    <path id="Path_1017" data-name="Path 1017" d="M321.572,394.024c-.119.079-.243.155-.367.227a.677.677,0,1,0,.677,1.173c.148-.085.294-.176.437-.27a.677.677,0,0,0-.746-1.13Z" transform="translate(-309.252 -379.713)" fill="#f6f4f5"/>
    <path id="Path_1018" data-name="Path 1018" d="M428.988,207.962a.677.677,0,1,0-1.353.053c.006.143.007.288,0,.43a.677.677,0,1,0,1.353.03C429,208.3,428.995,208.132,428.988,207.962Z" transform="translate(-412.155 -199.868)" fill="#f6f4f5"/>
    <path id="Path_1019" data-name="Path 1019" d="M378.134,344.2a.677.677,0,0,0-.948.135c-.086.115-.176.228-.269.337a.677.677,0,0,0,.077.954c.016.014.033.026.05.038a.677.677,0,0,0,.9-.115c.111-.13.219-.265.321-.4A.677.677,0,0,0,378.134,344.2Z" transform="translate(-363.118 -331.675)" fill="#f6f4f5"/>
    <path id="Path_1020" data-name="Path 1020" d="M414.786,279.383a.677.677,0,0,0-.848.443c-.043.136-.09.273-.141.407a.677.677,0,0,0,1.265.482c.061-.159.117-.322.168-.484A.677.677,0,0,0,414.786,279.383Z" transform="translate(-398.774 -269.301)" fill="#f6f4f5"/>
    <path id="Path_1021" data-name="Path 1021" d="M7.168,17.062a6.99,6.99,0,0,1-1.736-.552l-.019-.01c-.13-.061-.259-.126-.385-.195h0a7.221,7.221,0,0,1-.674-.421,7.064,7.064,0,0,1,.03-11.571l.024-.017a7.076,7.076,0,0,1,7.931-.064L11.807,5c-.147.213-.057.368.2.345l2.3-.206a.378.378,0,0,0,.343-.5l-.617-2.223c-.069-.249-.246-.279-.393-.066l-.53.766a8.36,8.36,0,0,0-6.126-1.3q-.325.056-.641.137h0l-.024.007a8.347,8.347,0,0,0-4.629,3.1c-.01.012-.02.023-.029.035-.038.052-.077.1-.114.158-.061.087-.121.176-.179.265-.007.011-.013.022-.019.032A8.346,8.346,0,0,0,.009,10.473c0,.006,0,.011,0,.017.008.17.021.342.039.511,0,.011,0,.021.005.032.019.17.043.341.072.512a8.355,8.355,0,0,0,2.356,4.531l.009.009,0,0a8.53,8.53,0,0,0,1.078.9,8.347,8.347,0,0,0,3.357,1.4.677.677,0,0,0,.239-1.333Z" transform="translate(0 -1.688)" fill="#f6f4f5"/>
    <path id="Path_1022" data-name="Path 1022" d="M206.535,83.2a.548.548,0,0,0-.548.548V89.2l4.991,2.58a.548.548,0,0,0,.5-.973l-4.4-2.274v-4.79A.548.548,0,0,0,206.535,83.2Z" transform="translate(-198.531 -80.247)" fill="#f6f4f5"/>
  </g>
</svg>
