<svg id="coin_1_" data-name="coin (1)" xmlns="http://www.w3.org/2000/svg" width="26" height="26" viewBox="0 0 26 26">
  <path id="Path_43869" data-name="Path 43869" d="M13,0A13,13,0,1,0,26,13,13.015,13.015,0,0,0,13,0Zm0,24.477A11.477,11.477,0,1,1,24.477,13,11.49,11.49,0,0,1,13,24.477Zm0,0" fill="#e7ae6f"/>
  <path id="Path_43870" data-name="Path 43870" d="M74,64.266A9.736,9.736,0,1,0,83.739,74,9.748,9.748,0,0,0,74,64.266Zm0,17.95A8.213,8.213,0,1,1,82.216,74,8.222,8.222,0,0,1,74,82.215Zm0,0" transform="translate(-61.002 -61.002)" fill="#e7ae6f"/>
  <path id="Path_43871" data-name="Path 43871" d="M146.386,133a.762.762,0,0,0-.573-.511l-3.275-.665-1.645-2.909a.762.762,0,0,0-1.326,0l-1.645,2.909-3.275.665a.762.762,0,0,0-.41,1.261l2.259,2.463-.379,3.321a.762.762,0,0,0,1.073.779l3.041-1.387,3.041,1.387a.762.762,0,0,0,1.073-.779l-.379-3.321,2.259-2.463A.762.762,0,0,0,146.386,133Zm-3.779,2.44a.762.762,0,0,0-.2.6l.266,2.327-2.131-.972a.762.762,0,0,0-.632,0l-2.131.972.266-2.327a.762.762,0,0,0-.2-.6l-1.583-1.726,2.3-.466a.762.762,0,0,0,.511-.372l1.153-2.039,1.153,2.039a.762.762,0,0,0,.511.372l2.3.466Zm0,0" transform="translate(-127.229 -122.004)" fill="#e7ae6f"/>
</svg>
