<svg xmlns="http://www.w3.org/2000/svg" width="31.681" height="37.289" viewBox="0 0 31.681 37.289">
  <g id="chat" transform="translate(-38.5)">
    <g id="Group_2429" data-name="Group 2429" transform="translate(38.5)">
      <g id="Group_2428" data-name="Group 2428" transform="translate(0)">
        <circle id="Ellipse_340" data-name="Ellipse 340" cx="1.5" cy="1.5" r="1.5" transform="translate(13 7)" fill="#e7ae6f"/>
        <rect id="Rectangle_1797" data-name="Rectangle 1797" width="6" height="2" transform="translate(10 29)" fill="#e7ae6f"/>
        <circle id="Ellipse_341" data-name="Ellipse 341" cx="1.5" cy="1.5" r="1.5" transform="translate(18 7)" fill="#e7ae6f"/>
        <path id="Path_1632" data-name="Path 1632" d="M66.955,1.972A12.206,12.206,0,0,0,59.766,0H42.87A4.375,4.375,0,0,0,38.5,4.37V32.919a4.375,4.375,0,0,0,4.37,4.37H60.057a4.375,4.375,0,0,0,4.37-4.37V16.794a7.943,7.943,0,0,0,5.754-8.033A7.991,7.991,0,0,0,66.955,1.972ZM61.514,32.919a1.458,1.458,0,0,1-1.457,1.457H42.87a1.458,1.458,0,0,1-1.457-1.457V4.37A1.458,1.458,0,0,1,42.87,2.913h5.28A8.235,8.235,0,0,0,46,8.761,8.335,8.335,0,0,0,50.018,15.9a5.931,5.931,0,0,1-.4,1L48.2,19.32l2.81-.244A6.121,6.121,0,0,0,54.449,17.4c.667.064,1.333.075,1.967.075h3.35q.908,0,1.748-.084ZM59.766,14.566h-3.35a13.947,13.947,0,0,1-2.272-.138l-.827-.141-.04.048.009-.06-1-.454a5.552,5.552,0,0,1-3.367-5.06,5.066,5.066,0,0,1,2.021-4.429,9.379,9.379,0,0,1,5.48-1.419h3.35a9.379,9.379,0,0,1,5.48,1.419,5.066,5.066,0,0,1,2.021,4.429C67.268,13.559,63.188,14.566,59.766,14.566Z" transform="translate(-38.5)" fill="#e7ae6f"/>
        <circle id="Ellipse_342" data-name="Ellipse 342" cx="1.5" cy="1.5" r="1.5" transform="translate(24 7)" fill="#e7ae6f"/>
      </g>
    </g>
  </g>
</svg>
