<svg xmlns="http://www.w3.org/2000/svg" width="23.244" height="13.263" viewBox="0 0 23.244 13.263">
  <g id="vk" transform="translate(0 -109.924)">
    <g id="Group_6819" data-name="Group 6819" transform="translate(0 109.924)">
      <path id="Path_44460" data-name="Path 44460" d="M23.037,121.754a10.363,10.363,0,0,0-2.309-2.67c-1.947-1.807-1.685-1.514.66-4.639,1.428-1.9,2-3.066,1.82-3.562-.17-.474-1.22-.349-1.22-.349l-3.493.02a.8.8,0,0,0-.452.08.984.984,0,0,0-.308.375,20.233,20.233,0,0,1-1.292,2.726c-1.556,2.643-2.179,2.782-2.434,2.618-.591-.382-.443-1.537-.443-2.357,0-2.561.388-3.629-.757-3.905a6,6,0,0,0-1.632-.163,7.545,7.545,0,0,0-2.9.3c-.4.195-.7.629-.517.654a1.567,1.567,0,0,1,1.032.519,3.365,3.365,0,0,1,.346,1.582s.206,3.015-.481,3.39c-.472.257-1.119-.267-2.506-2.666A22.36,22.36,0,0,1,4.9,111.116a1.032,1.032,0,0,0-.288-.388,1.448,1.448,0,0,0-.538-.216l-3.321.02s-.5.015-.681.231c-.163.193-.013.591-.013.591s2.6,6.083,5.544,9.15a7.978,7.978,0,0,0,5.766,2.627h1.389a1.171,1.171,0,0,0,.633-.277,1.012,1.012,0,0,0,.19-.61s-.028-1.864.838-2.139,1.948,1.8,3.109,2.6a2.2,2.2,0,0,0,1.544.471l3.1-.044S23.807,123.031,23.037,121.754Z" transform="translate(0 -109.924)" fill="#557cbe"/>
    </g>
  </g>
</svg>
