<svg xmlns="http://www.w3.org/2000/svg" width="10.249" height="20.104" viewBox="0 0 10.249 20.104">
  <path id="yandex" d="M134.831,0h-2.856c-2.894,0-5.814,2.137-5.814,6.911A5.977,5.977,0,0,0,129.13,12.4l-3.516,6.364a.913.913,0,0,0-.012.913.869.869,0,0,0,.761.422h1.779a.9.9,0,0,0,.87-.537l3.3-6.449h.241V19.3a.814.814,0,0,0,.8.8h1.554a.793.793,0,0,0,.829-.829V.88A.853.853,0,0,0,134.831,0ZM132.55,10.253h-.424c-1.646,0-2.628-1.343-2.628-3.594,0-2.8,1.241-3.795,2.4-3.795h.65Z" transform="translate(-125.486)" fill="#d7143a"/>
</svg>
